<svg width="128" height="32" viewBox="0 0 128 32" fill="none" xmlns="http://www.w3.org/2000/svg">
<path d="M97.6168 3H82.0475L77.912 22.4596H81.8036L85.2499 6.24349H94.9557L96.5247 8.23453L95.9231 11.0615L93.5073 13.0539H87.6945L83.7631 16.2974H94.7899L99.5092 12.4057L100.681 6.89164L97.6168 3Z" fill="#181818"/>
<path d="M74.3465 22.4596L69.4929 16.2946L74.2094 12.4057L75.381 6.89164L72.3171 3H54.4799L57.0328 6.24349H69.6559L71.2236 8.23453L70.6234 11.0615L68.2075 13.0539H60.4503L60.8641 11.108L57.7988 7.2164L54.5594 22.4596H58.451L59.761 16.2974H64.9504L69.8026 22.4596H74.3465Z" fill="#181818"/>
<path d="M27.5098 27.457H28.1086C28.3415 27.457 28.458 27.3419 28.458 27.1131V26.7171C28.458 26.4841 28.3415 26.3677 28.1086 26.3677H27.5098C27.4755 26.3677 27.4577 26.3841 27.4577 26.4142V27.4091C27.4577 27.4406 27.4755 27.4557 27.5098 27.4557V27.457ZM27.3782 28.9986H27.0795C27.026 28.9986 27 28.9712 27 28.9192V26.047C27 25.9936 27.0274 25.9662 27.0795 25.9662H28.1839C28.4128 25.9662 28.5937 26.0319 28.7238 26.1621C28.854 26.2923 28.9198 26.4732 28.9198 26.702V27.098C28.9198 27.4598 28.7704 27.6873 28.4717 27.7818V27.801L28.9952 28.9041C29.0294 28.9671 29.0089 28.9986 28.9335 28.9986H28.6416C28.5662 28.9986 28.5169 28.9712 28.495 28.9192L27.9907 27.8339H27.5139C27.4755 27.8339 27.4577 27.8503 27.4577 27.8805V28.9178C27.4577 28.9712 27.4303 28.9973 27.3782 28.9973V28.9986Z" fill="#181818"/>
<path d="M31.9002 28.9986H30.3915C30.338 28.9986 30.312 28.9712 30.312 28.9192V26.047C30.312 25.9936 30.338 25.9662 30.3915 25.9662H31.9002C31.9509 25.9662 31.9755 25.9936 31.9755 26.047V26.2868C31.9755 26.3403 31.9509 26.3663 31.9002 26.3663H30.8245C30.7861 26.3663 30.7683 26.3827 30.7683 26.4129V27.2104C30.7683 27.2419 30.7875 27.257 30.8245 27.257H31.7344C31.7906 27.257 31.8193 27.283 31.8193 27.3365V27.5763C31.8193 27.6297 31.7919 27.6557 31.7344 27.6557H30.8245C30.7861 27.6557 30.7683 27.6722 30.7683 27.7037V28.5437C30.7683 28.5779 30.7875 28.5958 30.8245 28.5958H31.9002C31.9509 28.5958 31.9755 28.6232 31.9755 28.6752V28.915C31.9755 28.9685 31.9509 28.9945 31.9002 28.9945V28.9986Z" fill="#181818"/>
<path d="M33.7007 28.9986H33.4089C33.3554 28.9986 33.3294 28.9712 33.3294 28.9192V26.047C33.3294 25.9936 33.3568 25.9662 33.4089 25.9662H33.6733C33.724 25.9662 33.7583 25.984 33.7775 26.0182L34.9189 28.0696H34.9381V26.047C34.9381 25.9936 34.9642 25.9662 35.0176 25.9662H35.3095C35.3629 25.9662 35.3903 25.9936 35.3903 26.047V28.9192C35.3903 28.9726 35.3629 28.9986 35.3095 28.9986H35.0546C35.0039 28.9986 34.9628 28.974 34.9326 28.9233L33.8008 26.8952H33.7816V28.9178C33.7816 28.9712 33.7556 28.9973 33.7021 28.9973L33.7007 28.9986Z" fill="#181818"/>
<path d="M37.7719 26.4197L37.3567 27.9284H38.2104L37.7911 26.4197H37.7719ZM36.6592 29C36.6154 29 36.5989 28.9726 36.6126 28.9205L37.4334 26.0484C37.4485 25.9949 37.4869 25.9675 37.5472 25.9675H38.0186C38.0816 25.9675 38.1186 25.9949 38.1323 26.0484L38.9531 28.9205C38.9654 28.974 38.9476 29 38.901 29H38.5667C38.5379 29 38.5187 28.9945 38.5077 28.9836C38.4968 28.9726 38.4886 28.952 38.4817 28.9205L38.3022 28.308H37.2649L37.0854 28.9205C37.073 28.974 37.0443 29 37.0004 29H36.6592Z" fill="#181818"/>
<path d="M40.6523 26.047V28.9192C40.6523 28.9726 40.6249 28.9986 40.5714 28.9986H40.2741C40.2206 28.9986 40.1946 28.9712 40.1946 28.9192V26.047C40.1946 25.9936 40.2206 25.9662 40.2741 25.9662H40.5714C40.6249 25.9662 40.6523 25.9936 40.6523 26.047Z" fill="#181818"/>
<path d="M42.0623 28.2628V28.1408C42.0623 28.0874 42.0883 28.0613 42.1418 28.0613H42.4432C42.4967 28.0613 42.5241 28.0874 42.5241 28.1408V28.2258C42.5241 28.3573 42.5529 28.4533 42.6104 28.5108C42.668 28.5684 42.7653 28.5985 42.9009 28.5985H43.2257C43.3613 28.5985 43.4586 28.5684 43.5175 28.5067C43.5778 28.445 43.6066 28.3464 43.6066 28.2066V28.0983C43.6066 27.9983 43.5682 27.9188 43.4915 27.8599C43.4148 27.801 43.3189 27.764 43.2065 27.7462C43.0928 27.7284 42.9694 27.7051 42.8338 27.6736C42.6981 27.642 42.5748 27.6064 42.4611 27.5653C42.3473 27.5242 42.2528 27.4475 42.176 27.3337C42.0993 27.22 42.0609 27.0761 42.0609 26.8993V26.7006C42.0609 26.4718 42.1267 26.2909 42.2569 26.1607C42.3871 26.0306 42.5679 25.9648 42.7968 25.9648H43.2969C43.5299 25.9648 43.7108 26.0306 43.8409 26.1607C43.9711 26.2909 44.0369 26.4718 44.0369 26.7006V26.8048C44.0369 26.8582 44.0095 26.8843 43.9574 26.8843H43.6559C43.6025 26.8843 43.5765 26.8569 43.5765 26.8048V26.7431C43.5765 26.6075 43.5477 26.5115 43.4888 26.4526C43.4312 26.3951 43.3339 26.3649 43.1983 26.3649H42.9009C42.7653 26.3649 42.6693 26.3951 42.6104 26.4567C42.5529 26.5184 42.5241 26.6225 42.5241 26.7705V26.9171C42.5241 27.0583 42.6269 27.1542 42.831 27.2049C42.9228 27.2268 43.0215 27.246 43.1311 27.2611C43.2394 27.2775 43.349 27.3008 43.4586 27.3323C43.5682 27.3639 43.6697 27.405 43.7601 27.457C43.8505 27.5091 43.9245 27.5872 43.9821 27.6927C44.0383 27.7982 44.067 27.9257 44.067 28.0764V28.26C44.067 28.4902 44.0013 28.6698 43.8711 28.7999C43.7409 28.9301 43.56 28.9959 43.3312 28.9959H42.8023C42.5734 28.9959 42.3925 28.9315 42.2596 28.7999C42.1281 28.6698 42.0623 28.4889 42.0623 28.26V28.2628Z" fill="#181818"/>
<path d="M45.4017 28.2628V28.1408C45.4017 28.0874 45.4291 28.0613 45.4826 28.0613H45.784C45.8375 28.0613 45.8649 28.0874 45.8649 28.1408V28.2258C45.8649 28.3573 45.8936 28.4533 45.9526 28.5108C46.0101 28.5684 46.1074 28.5985 46.2431 28.5985H46.5678C46.7035 28.5985 46.8008 28.5684 46.8597 28.5067C46.92 28.445 46.9488 28.3464 46.9488 28.2066V28.0983C46.9488 27.9983 46.9104 27.9188 46.8337 27.8599C46.7569 27.801 46.661 27.764 46.5486 27.7462C46.4349 27.7284 46.3116 27.7051 46.1759 27.6736C46.0403 27.642 45.9169 27.6064 45.8032 27.5653C45.6895 27.5242 45.5949 27.4475 45.5182 27.3337C45.4414 27.22 45.4031 27.0761 45.4031 26.8993V26.7006C45.4031 26.4718 45.4688 26.2909 45.599 26.1607C45.7292 26.0306 45.9101 25.9648 46.1389 25.9648H46.6391C46.872 25.9648 47.0529 26.0306 47.1831 26.1607C47.3133 26.2909 47.379 26.4718 47.379 26.7006V26.8048C47.379 26.8582 47.3516 26.8843 47.2996 26.8843H46.9981C46.9447 26.8843 46.9186 26.8569 46.9186 26.8048V26.7431C46.9186 26.6075 46.8898 26.5115 46.8309 26.4526C46.772 26.3951 46.6761 26.3649 46.5404 26.3649H46.2431C46.1074 26.3649 46.0115 26.3951 45.9526 26.4567C45.895 26.5184 45.8649 26.6225 45.8649 26.7705V26.9171C45.8649 27.0583 45.9676 27.1542 46.1718 27.2049C46.2623 27.2268 46.3623 27.246 46.4705 27.2611C46.5788 27.2775 46.6884 27.3008 46.798 27.3323C46.9077 27.3639 47.0091 27.405 47.0995 27.457C47.1913 27.5091 47.2653 27.5872 47.3215 27.6927C47.3777 27.7982 47.4064 27.9257 47.4064 28.0764V28.26C47.4064 28.4902 47.342 28.6698 47.2105 28.7999C47.0803 28.9301 46.8994 28.9959 46.6706 28.9959H46.143C45.9142 28.9959 45.7333 28.9315 45.6004 28.7999C45.4689 28.6698 45.4017 28.4889 45.4017 28.26V28.2628Z" fill="#181818"/>
<path d="M49.736 26.4197L49.3208 27.9284H50.1744L49.7551 26.4197H49.736ZM48.9631 29H48.6233C48.5794 29 48.563 28.9726 48.5753 28.9205L49.3961 26.0484C49.4112 25.9949 49.4496 25.9675 49.5085 25.9675H49.9799C50.0429 25.9675 50.0799 25.9949 50.0936 26.0484L50.9144 28.9205C50.9267 28.974 50.9089 29 50.8623 29H50.528C50.5006 29 50.48 28.9945 50.4691 28.9836C50.4581 28.9726 50.4499 28.952 50.443 28.9205L50.2635 28.308H49.2262L49.0467 28.9205C49.0344 28.974 49.0056 29 48.9617 29H48.9631Z" fill="#181818"/>
<path d="M52.5081 28.9986H52.2162C52.1627 28.9986 52.1367 28.9712 52.1367 28.9192V26.047C52.1367 25.9936 52.1641 25.9662 52.2162 25.9662H52.4807C52.5314 25.9662 52.5656 25.984 52.5848 26.0182L53.7263 28.0696H53.7454V26.047C53.7454 25.9936 53.7715 25.9662 53.8263 25.9662H54.1182C54.1716 25.9662 54.1976 25.9936 54.1976 26.047V28.9192C54.1976 28.9726 54.1702 28.9986 54.1182 28.9986H53.8633C53.8126 28.9986 53.7715 28.974 53.74 28.9233L52.6081 26.8952H52.5889V28.9178C52.5889 28.9712 52.5629 28.9973 52.5094 28.9973L52.5081 28.9986Z" fill="#181818"/>
<path d="M56.8711 28.9986H56.3243C56.0914 28.9986 55.9119 28.9342 55.7844 28.8054C55.657 28.6766 55.594 28.4971 55.594 28.2683V26.6979C55.594 26.465 55.657 26.2854 55.7844 26.158C55.9119 26.0306 56.0914 25.9675 56.3243 25.9675H56.8711C57.0999 25.9675 57.2794 26.0306 57.4082 26.158C57.537 26.2854 57.6015 26.465 57.6015 26.6979V26.924C57.6015 26.9802 57.5727 27.009 57.5165 27.009H57.2191C57.1657 27.009 57.1383 26.9802 57.1383 26.924V26.7157C57.1383 26.4828 57.0246 26.3663 56.7985 26.3663H56.3887C56.1626 26.3663 56.0489 26.4828 56.0489 26.7157V28.2491C56.0489 28.482 56.1626 28.5985 56.3887 28.5985H56.7985C57.0246 28.5985 57.1383 28.482 57.1383 28.2491V28.0422C57.1383 27.986 57.1657 27.9572 57.2191 27.9572H57.5165C57.5727 27.9572 57.6015 27.986 57.6015 28.0422V28.2683C57.6015 28.4985 57.537 28.6766 57.4082 28.8054C57.2794 28.9342 57.0999 28.9986 56.8711 28.9986Z" fill="#181818"/>
<path d="M60.5298 28.9986H59.0211C58.9676 28.9986 58.9416 28.9712 58.9416 28.9192V26.047C58.9416 25.9936 58.969 25.9662 59.0211 25.9662H60.5298C60.5805 25.9662 60.6051 25.9936 60.6051 26.047V26.2868C60.6051 26.3403 60.5805 26.3663 60.5298 26.3663H59.4541C59.4157 26.3663 59.3979 26.3827 59.3979 26.4129V27.2104C59.3979 27.2419 59.4171 27.257 59.4541 27.257H60.364C60.4202 27.257 60.4489 27.283 60.4489 27.3365V27.5763C60.4489 27.6297 60.4202 27.6557 60.364 27.6557H59.4541C59.4157 27.6557 59.3979 27.6722 59.3979 27.7037V28.5437C59.3979 28.5779 59.4171 28.5958 59.4541 28.5958H60.5298C60.5805 28.5958 60.6051 28.6232 60.6051 28.6752V28.915C60.6051 28.9685 60.5805 28.9945 60.5298 28.9945V28.9986Z" fill="#181818"/>
<path d="M64.3447 27.5132H64.9723C65.1956 27.5132 65.3066 27.3968 65.3066 27.1638V26.7157C65.3066 26.4828 65.1943 26.3663 64.9723 26.3663H64.3447C64.3104 26.3663 64.2926 26.3827 64.2926 26.4129V27.4653C64.2926 27.4968 64.3104 27.5119 64.3447 27.5119V27.5132ZM64.2131 28.9986H63.9158C63.8623 28.9986 63.8363 28.9712 63.8363 28.9192V26.047C63.8363 25.9936 63.8623 25.9662 63.9158 25.9662H65.038C65.2683 25.9662 65.4464 26.0292 65.5752 26.1566C65.704 26.2841 65.7684 26.4636 65.7684 26.6965V27.1871C65.7684 27.4159 65.704 27.5954 65.5752 27.7243C65.4464 27.8531 65.2669 27.9175 65.038 27.9175H64.3502C64.3118 27.9175 64.294 27.9339 64.294 27.9641V28.9164C64.294 28.9699 64.2679 28.9959 64.2145 28.9959L64.2131 28.9986Z" fill="#181818"/>
<path d="M68.6693 28.9986H67.1606C67.1072 28.9986 67.0812 28.9712 67.0812 28.9192V26.047C67.0812 25.9936 67.1072 25.9662 67.1606 25.9662H68.6693C68.72 25.9662 68.7447 25.9936 68.7447 26.047V26.2868C68.7447 26.3403 68.72 26.3663 68.6693 26.3663H67.5936C67.5553 26.3663 67.5375 26.3827 67.5375 26.4129V27.2104C67.5375 27.2419 67.5567 27.257 67.5936 27.257H68.5035C68.5597 27.257 68.5885 27.283 68.5885 27.3365V27.5763C68.5885 27.6297 68.5597 27.6557 68.5035 27.6557H67.5936C67.5553 27.6557 67.5375 27.6722 67.5375 27.7037V28.5437C67.5375 28.5779 67.5567 28.5958 67.5936 28.5958H68.6693C68.72 28.5958 68.7447 28.6232 68.7447 28.6752V28.915C68.7447 28.9685 68.72 28.9945 68.6693 28.9945V28.9986Z" fill="#181818"/>
<path d="M70.6083 27.457H71.2071C71.4401 27.457 71.5565 27.3419 71.5565 27.1131V26.7171C71.5565 26.4841 71.4401 26.3677 71.2071 26.3677H70.6083C70.574 26.3677 70.5562 26.3841 70.5562 26.4142V27.4091C70.5562 27.4406 70.574 27.4557 70.6083 27.4557V27.457ZM70.4768 28.9986H70.1794C70.126 28.9986 70.0999 28.9712 70.0999 28.9192V26.047C70.0999 25.9936 70.126 25.9662 70.1794 25.9662H71.2825C71.5113 25.9662 71.6922 26.0319 71.8224 26.1621C71.9526 26.2923 72.0183 26.4732 72.0183 26.702V27.098C72.0183 27.4598 71.869 27.6873 71.5703 27.7818V27.801L72.0937 28.9041C72.128 28.9671 72.1074 28.9986 72.032 28.9986H71.7402C71.6648 28.9986 71.6155 28.9712 71.5935 28.9192L71.0893 27.8339H70.6124C70.574 27.8339 70.5562 27.8503 70.5562 27.8805V28.9178C70.5562 28.9712 70.5302 28.9973 70.4768 28.9973V28.9986Z" fill="#181818"/>
<path d="M73.8902 26.047V28.9192C73.8902 28.9726 73.8628 28.9986 73.8093 28.9986H73.512C73.4585 28.9986 73.4325 28.9712 73.4325 28.9192V26.047C73.4325 25.9936 73.4585 25.9662 73.512 25.9662H73.8093C73.8628 25.9662 73.8902 25.9936 73.8902 26.047Z" fill="#181818"/>
<path d="M76.1073 28.5985H76.517C76.7459 28.5985 76.861 28.482 76.861 28.2491V26.7157C76.861 26.4828 76.7459 26.3663 76.517 26.3663H76.1073C75.8812 26.3663 75.7675 26.4828 75.7675 26.7157V28.2491C75.7675 28.482 75.8812 28.5985 76.1073 28.5985ZM76.5883 28.9986H76.0415C75.8086 28.9986 75.6291 28.9342 75.5016 28.8054C75.3742 28.6766 75.3098 28.4971 75.3098 28.2683V26.6979C75.3098 26.465 75.3742 26.2854 75.5016 26.158C75.6291 26.0306 75.8086 25.9675 76.0415 25.9675H76.5883C76.8212 25.9675 77.0021 26.0306 77.1309 26.158C77.2597 26.2854 77.3241 26.465 77.3241 26.6979V28.2683C77.3241 28.4985 77.2597 28.6766 77.1309 28.8054C77.0021 28.9342 76.8212 28.9986 76.5883 28.9986Z" fill="#181818"/>
<path d="M79.2247 28.5985H79.8893C80.1154 28.5985 80.2292 28.482 80.2292 28.2491V26.7157C80.2292 26.4828 80.1154 26.3663 79.8893 26.3663H79.2247C79.1905 26.3663 79.1726 26.3827 79.1726 26.4129V28.5451C79.1726 28.5793 79.1905 28.5971 79.2247 28.5971V28.5985ZM78.715 28.9192V26.047C78.715 25.9936 78.741 25.9662 78.7945 25.9662H79.9551C80.1839 25.9662 80.3648 26.0292 80.495 26.1566C80.6252 26.2841 80.6909 26.4636 80.6909 26.6965V28.2669C80.6909 28.4971 80.6252 28.6752 80.495 28.804C80.3648 28.9329 80.1853 28.9973 79.9551 28.9973H78.7945C78.741 28.9973 78.715 28.9699 78.715 28.9178V28.9192Z" fill="#181818"/>
<path d="M82.5682 26.047V28.9192C82.5682 28.9726 82.5408 28.9986 82.4888 28.9986H82.1914C82.138 28.9986 82.1119 28.9712 82.1119 28.9192V26.047C82.1119 25.9936 82.138 25.9662 82.1914 25.9662H82.4888C82.5422 25.9662 82.5682 25.9936 82.5682 26.047Z" fill="#181818"/>
<path d="M83.907 28.6972C83.907 28.6149 83.9207 28.5574 83.9495 28.5231L85.3129 26.4156V26.3964H84.0632C84.0071 26.3964 83.9783 26.3704 83.9783 26.317V26.0484C83.9783 25.9949 84.0071 25.9675 84.0632 25.9675H85.7323C85.7857 25.9675 85.8117 25.9949 85.8117 26.0484V26.3594C85.8117 26.428 85.7939 26.4896 85.7597 26.5431L84.4483 28.5519V28.5711H85.7789C85.8323 28.5711 85.8597 28.5958 85.8597 28.6465V28.9109C85.8597 28.9712 85.8323 29 85.7789 29H83.9865C83.9331 29 83.907 28.9726 83.907 28.9205V28.6972Z" fill="#181818"/>
<path d="M88.1138 26.4197L87.6986 27.9284H88.5523L88.133 26.4197H88.1138ZM87.0012 29C86.9573 29 86.9409 28.9726 86.9546 28.9205L87.7754 26.0484C87.7918 25.9949 87.8288 25.9675 87.8891 25.9675H88.3605C88.4235 25.9675 88.4605 25.9949 88.4742 26.0484L89.295 28.9205C89.3074 28.974 89.2909 29 89.243 29H88.9086C88.8798 29 88.8606 28.9945 88.8497 28.9836C88.8387 28.9726 88.8305 28.952 88.8236 28.9205L88.6441 28.308H87.6068L87.4273 28.9205C87.415 28.974 87.3862 29 87.3424 29H87.0012Z" fill="#181818"/>
<path d="M91.3436 28.9986H91.0463C90.9901 28.9986 90.9613 28.9712 90.9613 28.9192V26.4142C90.9613 26.3827 90.9449 26.3677 90.9147 26.3677H90.32C90.2638 26.3677 90.2351 26.3416 90.2351 26.2882V26.0484C90.2351 25.9949 90.2638 25.9675 90.32 25.9675H92.0699C92.1261 25.9675 92.1548 25.9949 92.1548 26.0484V26.2882C92.1548 26.3416 92.1261 26.3677 92.0699 26.3677H91.4752C91.4409 26.3677 91.4231 26.3841 91.4231 26.4142V28.9192C91.4231 28.9726 91.3971 28.9986 91.3436 28.9986Z" fill="#181818"/>
<path d="M93.7964 26.047V28.9192C93.7964 28.9726 93.769 28.9986 93.717 28.9986H93.4196C93.3662 28.9986 93.3401 28.9712 93.3401 28.9192V26.047C93.3401 25.9936 93.3662 25.9662 93.4196 25.9662H93.717C93.7704 25.9662 93.7964 25.9936 93.7964 26.047Z" fill="#181818"/>
<path d="M96.0122 28.5985H96.4233C96.6521 28.5985 96.7673 28.482 96.7673 28.2491V26.7157C96.7673 26.4828 96.6521 26.3663 96.4233 26.3663H96.0122C95.7861 26.3663 95.6724 26.4828 95.6724 26.7157V28.2491C95.6724 28.482 95.7861 28.5985 96.0122 28.5985ZM96.4932 28.9986H95.9464C95.7135 28.9986 95.534 28.9342 95.4065 28.8054C95.2791 28.6766 95.2161 28.4971 95.2161 28.2683V26.6979C95.2161 26.465 95.2791 26.2854 95.4065 26.158C95.534 26.0306 95.7135 25.9675 95.9464 25.9675H96.4932C96.7261 25.9675 96.907 26.0306 97.0358 26.158C97.1646 26.2854 97.229 26.465 97.229 26.6979V28.2683C97.229 28.4985 97.1646 28.6766 97.0358 28.8054C96.907 28.9342 96.7261 28.9986 96.4932 28.9986Z" fill="#181818"/>
<path d="M98.9926 28.9986H98.7007C98.6473 28.9986 98.6213 28.9712 98.6213 28.9192V26.047C98.6213 25.9936 98.6487 25.9662 98.7007 25.9662H98.9652C99.0159 25.9662 99.0502 25.984 99.0694 26.0182L100.211 28.0696H100.23V26.047C100.23 25.9936 100.257 25.9662 100.311 25.9662H100.603C100.656 25.9662 100.682 25.9936 100.682 26.047V28.9192C100.682 28.9726 100.655 28.9986 100.603 28.9986H100.348C100.297 28.9986 100.257 28.974 100.226 28.9233L99.094 26.8952H99.0748V28.9178C99.0748 28.9712 99.0488 28.9973 98.994 28.9973L98.9926 28.9986Z" fill="#181818"/>
<path fill-rule="evenodd" clip-rule="evenodd" d="M30.5066 4.47992L32.3017 3H48.8014L49.9662 4.47992L46.4596 20.9797L44.6645 22.4596H28.1648L27 20.9797L30.5066 4.47992ZM30.6998 12.7291H34.5914L32.9361 20.5138H29.0445L30.6998 12.7291ZM34.8833 20.5138H38.775L41.2566 8.83747H37.3649L34.8833 20.5138ZM40.7208 20.5138L44.03 4.94582H47.9217L44.6124 20.5138H40.7208Z" fill="#181818"/>
</svg>
