<svg width="128" height="32" viewBox="0 0 128 32" fill="none" xmlns="http://www.w3.org/2000/svg">
<path d="M32.903 27.9059C32.8982 27.8965 32.8957 27.8861 32.8957 27.8756C32.8957 27.865 32.8982 27.8546 32.903 27.8452V24.1504C32.8953 24.1309 32.8953 24.1093 32.903 24.0898C32.9227 24.0834 32.9439 24.0834 32.9637 24.0898H33.3332C33.353 24.0897 33.3726 24.0947 33.39 24.1043C33.4074 24.114 33.422 24.128 33.4324 24.1449L34.3589 25.6228C34.3589 25.6228 34.3589 25.6228 34.392 25.6228L35.3239 24.1449C35.3344 24.128 35.349 24.114 35.3663 24.1043C35.3837 24.0947 35.4033 24.0897 35.4232 24.0898H35.7927C35.8124 24.0834 35.8336 24.0834 35.8533 24.0898C35.861 24.1093 35.861 24.1309 35.8533 24.1504V27.8452C35.8582 27.8546 35.8607 27.865 35.8607 27.8756C35.8607 27.8861 35.8582 27.8965 35.8533 27.9059C35.8438 27.91 35.8334 27.9121 35.823 27.9121C35.8126 27.9121 35.8023 27.91 35.7927 27.9059H35.4287C35.4191 27.91 35.4088 27.9121 35.3984 27.9121C35.388 27.9121 35.3776 27.91 35.3681 27.9059C35.3632 27.8965 35.3607 27.8861 35.3607 27.8756C35.3607 27.865 35.3632 27.8546 35.3681 27.8452V25.0438L34.6181 26.268C34.6086 26.2858 34.5942 26.3005 34.5765 26.3102C34.5589 26.32 34.5389 26.3245 34.5188 26.3232H34.3423C34.3222 26.3245 34.3022 26.32 34.2846 26.3102C34.267 26.3005 34.2526 26.2858 34.2431 26.268L33.4434 25.0328V27.8452C33.4483 27.8546 33.4508 27.865 33.4508 27.8756C33.4508 27.8861 33.4483 27.8965 33.4434 27.9059C33.4339 27.91 33.4235 27.9121 33.4131 27.9121C33.4027 27.9121 33.3924 27.91 33.3828 27.9059H33.0188C33.0116 27.9141 33.0027 27.9207 32.9927 27.9252C32.9827 27.9297 32.9719 27.932 32.9609 27.932C32.95 27.932 32.9391 27.9297 32.9292 27.9252C32.9192 27.9207 32.9103 27.9141 32.903 27.9059Z" fill="#181818"/>
<path d="M39.2007 27.8121C39.0007 27.7056 38.8345 27.5451 38.7209 27.3489C38.6038 27.1364 38.5448 26.8967 38.55 26.6541V25.3637C38.5442 25.1227 38.6033 24.8846 38.7209 24.6743C38.8345 24.4781 39.0007 24.3177 39.2007 24.2111C39.4202 24.0971 39.6648 24.0402 39.9121 24.0457C40.1611 24.0402 40.4076 24.0971 40.629 24.2111C40.8291 24.3177 40.9953 24.4781 41.1088 24.6743C41.2361 24.8819 41.3047 25.1201 41.3073 25.3637V26.6761C41.3125 26.9188 41.2535 27.1584 41.1363 27.371C41.0228 27.5672 40.8566 27.7276 40.6566 27.8342C40.4351 27.9482 40.1887 28.0051 39.9397 27.9996C39.6812 28.0031 39.4263 27.9384 39.2007 27.8121ZM40.5187 27.2883C40.5979 27.2078 40.6598 27.112 40.7006 27.0067C40.7414 26.9014 40.7602 26.7889 40.7558 26.6761V25.3637C40.7613 25.2504 40.7436 25.1371 40.7038 25.0309C40.664 24.9247 40.6029 24.8278 40.5242 24.746C40.3591 24.5933 40.1425 24.5085 39.9176 24.5085C39.6927 24.5085 39.4761 24.5933 39.311 24.746C39.2371 24.8301 39.1805 24.9279 39.1446 25.0339C39.1086 25.1399 39.094 25.252 39.1014 25.3637V26.7037C39.0966 26.8156 39.1141 26.9274 39.1529 27.0325C39.1917 27.1376 39.2511 27.2339 39.3276 27.3158C39.4944 27.465 39.7103 27.5475 39.9342 27.5475C40.158 27.5475 40.3739 27.465 40.5408 27.3158L40.5187 27.2883Z" fill="#181818"/>
<path d="M46.0223 25.9482C46.2031 26.0217 46.3562 26.1502 46.4601 26.3154C46.564 26.4807 46.6134 26.6743 46.6013 26.8691C46.6113 27.0165 46.5866 27.1641 46.5291 27.3001C46.4717 27.4361 46.3831 27.5567 46.2705 27.6522C46.0192 27.8434 45.7091 27.9409 45.3936 27.928H44.0646C44.055 27.932 44.0447 27.9342 44.0343 27.9342C44.0239 27.9342 44.0135 27.932 44.004 27.928C43.9991 27.9186 43.9966 27.9082 43.9966 27.8976C43.9966 27.8871 43.9991 27.8767 44.004 27.8673V24.1504C43.9963 24.1309 43.9963 24.1093 44.004 24.0898C44.0237 24.0834 44.0449 24.0834 44.0646 24.0898H45.3661C45.684 24.0701 45.9986 24.1639 46.2539 24.3545C46.3628 24.4477 46.4484 24.565 46.5039 24.6971C46.5594 24.8293 46.5833 24.9725 46.5738 25.1155C46.5783 25.2892 46.528 25.46 46.43 25.6035C46.332 25.7471 46.1913 25.8561 46.0278 25.9151C46.0278 25.9151 46.0058 25.9151 46.0223 25.9482ZM44.4892 25.7331H45.3164C45.4995 25.7447 45.6804 25.6876 45.8238 25.5732C45.8845 25.5186 45.9323 25.4512 45.9637 25.3758C45.9952 25.3005 46.0096 25.2191 46.0058 25.1376C46.0112 25.0542 45.9977 24.9706 45.9662 24.8933C45.9347 24.8159 45.886 24.7467 45.8238 24.6909C45.6812 24.5745 45.5002 24.5155 45.3164 24.5254H44.4892V25.7331ZM45.89 27.3103C45.9516 27.2483 45.9996 27.174 46.031 27.0924C46.0623 27.0107 46.0763 26.9234 46.0719 26.8361C46.0765 26.749 46.0622 26.662 46.0298 26.581C45.9974 26.5001 45.9478 26.4272 45.8844 26.3673C45.7423 26.2451 45.5588 26.182 45.3716 26.1908H44.5168V27.4813H45.3881C45.5734 27.4865 45.7535 27.4193 45.89 27.2938V27.3103Z" fill="#181818"/>
<path d="M49.298 27.9059C49.2932 27.8965 49.2906 27.8861 49.2906 27.8756C49.2906 27.865 49.2932 27.8546 49.298 27.8452V24.1504C49.2903 24.1309 49.2903 24.1093 49.298 24.0898C49.3177 24.0834 49.3389 24.0834 49.3586 24.0898H49.7226C49.7423 24.0834 49.7636 24.0834 49.7833 24.0898C49.791 24.1093 49.791 24.1309 49.7833 24.1504V27.8452C49.7881 27.8546 49.7906 27.865 49.7906 27.8756C49.7906 27.8861 49.7881 27.8965 49.7833 27.9059C49.7737 27.91 49.7634 27.9121 49.7529 27.9121C49.7425 27.9121 49.7322 27.91 49.7226 27.9059H49.3586C49.3491 27.91 49.3387 27.9121 49.3283 27.9121C49.3179 27.9121 49.3076 27.91 49.298 27.9059Z" fill="#181818"/>
<path d="M52.6068 27.9059C52.6019 27.8965 52.5994 27.8861 52.5994 27.8756C52.5994 27.865 52.6019 27.8546 52.6068 27.8452V24.1504C52.5991 24.1309 52.5991 24.1093 52.6068 24.0898C52.6265 24.0834 52.6477 24.0834 52.6674 24.0898H53.0314C53.0511 24.0834 53.0723 24.0834 53.092 24.0898C53.0997 24.1093 53.0997 24.1309 53.092 24.1504V27.4592H54.9615C54.9812 27.4529 55.0024 27.4529 55.0222 27.4592C55.0349 27.4602 55.0472 27.464 55.0581 27.4705C55.0691 27.477 55.0784 27.4859 55.0853 27.4966C55.0922 27.5073 55.0966 27.5194 55.0981 27.5321C55.0996 27.5447 55.0981 27.5575 55.0939 27.5695V27.8618C55.0987 27.8712 55.1012 27.8816 55.1012 27.8921C55.1012 27.9027 55.0987 27.9131 55.0939 27.9224C55.0843 27.9265 55.074 27.9286 55.0635 27.9286C55.0531 27.9286 55.0428 27.9265 55.0332 27.9224H52.6674C52.6567 27.9241 52.6458 27.9235 52.6353 27.9206C52.6249 27.9178 52.6151 27.9128 52.6068 27.9059Z" fill="#181818"/>
<path d="M57.6251 27.9059C57.6202 27.8965 57.6177 27.8861 57.6177 27.8756C57.6177 27.865 57.6202 27.8546 57.6251 27.8452V24.1504C57.6174 24.1309 57.6174 24.1093 57.6251 24.0898C57.6448 24.0834 57.666 24.0834 57.6857 24.0898H58.0497C58.0694 24.0834 58.0906 24.0834 58.1104 24.0898C58.118 24.1093 58.118 24.1309 58.1104 24.1504V27.8452C58.1152 27.8546 58.1177 27.865 58.1177 27.8756C58.1177 27.8861 58.1152 27.8965 58.1104 27.9059C58.1008 27.91 58.0905 27.9121 58.08 27.9121C58.0696 27.9121 58.0593 27.91 58.0497 27.9059H57.6857C57.6761 27.91 57.6658 27.9121 57.6554 27.9121C57.645 27.9121 57.6347 27.91 57.6251 27.9059Z" fill="#181818"/>
<path d="M63.3989 24.0898C63.4066 24.1093 63.4066 24.1309 63.3989 24.1504V24.4482C63.4037 24.4576 63.4062 24.468 63.4062 24.4786C63.4062 24.4891 63.4037 24.4995 63.3989 24.5089C63.3893 24.513 63.379 24.5151 63.3685 24.5151C63.3581 24.5151 63.3478 24.513 63.3382 24.5089H62.3125V27.8177C62.3173 27.827 62.3199 27.8374 62.3199 27.848C62.3199 27.8585 62.3173 27.8689 62.3125 27.8783C62.3029 27.8824 62.2926 27.8845 62.2822 27.8845C62.2717 27.8845 62.2614 27.8824 62.2518 27.8783H61.8879C61.8783 27.8824 61.868 27.8845 61.8575 27.8845C61.8471 27.8845 61.8368 27.8824 61.8272 27.8783C61.8224 27.8689 61.8199 27.8585 61.8199 27.848C61.8199 27.8374 61.8224 27.827 61.8272 27.8177V24.5089H60.7519C60.7423 24.513 60.732 24.5151 60.7215 24.5151C60.7111 24.5151 60.7008 24.513 60.6912 24.5089C60.6864 24.4995 60.6838 24.4891 60.6838 24.4786C60.6838 24.468 60.6864 24.4576 60.6912 24.4482V24.1504C60.6835 24.1309 60.6835 24.1093 60.6912 24.0898C60.7109 24.0834 60.7321 24.0834 60.7519 24.0898H63.3658C63.3767 24.0879 63.3879 24.0879 63.3989 24.0898Z" fill="#181818"/>
<path d="M66.8676 27.9004C66.8627 27.891 66.8602 27.8806 66.8602 27.87C66.8602 27.8595 66.8627 27.8491 66.8676 27.8397V26.2846L65.7646 24.167C65.7646 24.167 65.7646 24.1339 65.7646 24.1284C65.7646 24.1229 65.7647 24.0677 65.8363 24.0677H66.2279C66.2487 24.0661 66.2695 24.0711 66.2873 24.082C66.3052 24.0929 66.3191 24.1091 66.3271 24.1284L67.1598 25.7111C67.1598 25.7111 67.1599 25.7111 67.1929 25.7111L68.0257 24.1284C68.0349 24.11 68.0491 24.0946 68.0666 24.0839C68.0842 24.0732 68.1044 24.0676 68.1249 24.0677H68.522C68.5661 24.0677 68.5881 24.0677 68.5881 24.1229V24.167L67.4852 26.2846V27.8397C67.4901 27.8491 67.4926 27.8595 67.4926 27.87C67.4926 27.8806 67.4901 27.891 67.4852 27.9004C67.4756 27.9045 67.4653 27.9066 67.4549 27.9066C67.4445 27.9066 67.4341 27.9045 67.4246 27.9004H67.0606C67.0606 27.926 67.0504 27.9505 67.0323 27.9686C67.0142 27.9867 66.9897 27.9969 66.9641 27.9969C66.9385 27.9969 66.9139 27.9867 66.8958 27.9686C66.8777 27.9505 66.8676 27.926 66.8676 27.9004Z" fill="#181818"/>
<path d="M76.5678 24.5034C76.5582 24.5075 76.5479 24.5096 76.5375 24.5096C76.527 24.5096 76.5167 24.5075 76.5071 24.5034H74.5881V25.7331H75.895C75.9147 25.7268 75.936 25.7268 75.9557 25.7331C75.9598 25.7427 75.9619 25.753 75.9619 25.7635C75.9619 25.7739 75.9598 25.7842 75.9557 25.7938V26.0861C75.9605 26.0954 75.963 26.1058 75.963 26.1164C75.963 26.127 75.9605 26.1373 75.9557 26.1467C75.9461 26.1508 75.9358 26.1529 75.9254 26.1529C75.9149 26.1529 75.9046 26.1508 75.895 26.1467H74.5881V27.8452C74.5929 27.8546 74.5954 27.865 74.5954 27.8756C74.5954 27.8861 74.5929 27.8965 74.5881 27.9059C74.5785 27.91 74.5681 27.9121 74.5577 27.9121C74.5473 27.9121 74.537 27.91 74.5274 27.9059H74.1634C74.1538 27.91 74.1435 27.9121 74.1331 27.9121C74.1227 27.9121 74.1124 27.91 74.1028 27.9059C74.0979 27.8965 74.0954 27.8861 74.0954 27.8756C74.0954 27.865 74.0979 27.8546 74.1028 27.8452V24.1504C74.0951 24.1309 74.0951 24.1093 74.1028 24.0898C74.1225 24.0834 74.1437 24.0834 74.1634 24.0898H76.5568C76.5765 24.0834 76.5977 24.0834 76.6174 24.0898C76.6251 24.1093 76.6251 24.1309 76.6174 24.1504V24.4427C76.6167 24.4568 76.6115 24.4703 76.6026 24.4812C76.5936 24.4921 76.5815 24.4999 76.5678 24.5034Z" fill="#181818"/>
<path d="M79.0439 27.9059C79.039 27.8965 79.0365 27.8861 79.0365 27.8756C79.0365 27.865 79.039 27.8546 79.0439 27.8452V24.1504C79.0362 24.1309 79.0362 24.1093 79.0439 24.0898C79.0636 24.0834 79.0848 24.0834 79.1045 24.0898H79.4685C79.4882 24.0834 79.5094 24.0834 79.5291 24.0898C79.5368 24.1093 79.5368 24.1309 79.5291 24.1504V27.8452C79.534 27.8546 79.5365 27.865 79.5365 27.8756C79.5365 27.8861 79.534 27.8965 79.5291 27.9059C79.5196 27.91 79.5092 27.9121 79.4988 27.9121C79.4884 27.9121 79.4781 27.91 79.4685 27.9059H79.1045C79.0949 27.91 79.0846 27.9121 79.0742 27.9121C79.0638 27.9121 79.0535 27.91 79.0439 27.9059Z" fill="#181818"/>
<path d="M84.4592 27.8673L83.6982 26.2129C83.693 26.2105 83.6874 26.2092 83.6817 26.2092C83.6759 26.2092 83.6703 26.2105 83.6651 26.2129H82.8876L82.86 26.2405V27.8452C82.8648 27.8546 82.8673 27.865 82.8673 27.8756C82.8673 27.8861 82.8648 27.8965 82.86 27.9059C82.8504 27.91 82.8401 27.9121 82.8297 27.9121C82.8192 27.9121 82.8089 27.91 82.7993 27.9059H82.4354C82.4258 27.91 82.4155 27.9121 82.405 27.9121C82.3946 27.9121 82.3843 27.91 82.3747 27.9059C82.3699 27.8965 82.3673 27.8861 82.3673 27.8756C82.3673 27.865 82.3699 27.8546 82.3747 27.8452V24.1449C82.367 24.1254 82.367 24.1038 82.3747 24.0843C82.3944 24.0779 82.4156 24.0779 82.4354 24.0843H83.8912C84.0834 24.0859 84.2724 24.1331 84.4427 24.2221C84.6075 24.3106 84.7434 24.4446 84.8342 24.6081C84.9257 24.7775 84.9731 24.9671 84.9721 25.1596C84.979 25.3933 84.9071 25.6224 84.768 25.8103C84.63 25.9887 84.4356 26.115 84.2166 26.1688C84.2166 26.1688 84.2166 26.1688 84.2166 26.2019L84.9997 27.8287V27.8728C84.9997 27.9114 84.9997 27.928 84.928 27.928H84.553C84.5328 27.9302 84.5124 27.9254 84.4953 27.9143C84.4782 27.9033 84.4655 27.8867 84.4592 27.8673ZM82.86 25.7828H83.803C83.888 25.7874 83.9731 25.7743 84.0527 25.7442C84.1324 25.7142 84.2049 25.6678 84.2656 25.6081C84.3263 25.5484 84.3739 25.4767 84.4054 25.3976C84.4368 25.3185 84.4514 25.2337 84.4482 25.1486C84.4512 25.0627 84.4372 24.977 84.4069 24.8966C84.3766 24.8161 84.3307 24.7424 84.2717 24.6798C84.2095 24.6204 84.1359 24.5741 84.0554 24.5438C83.9748 24.5135 83.889 24.4997 83.803 24.5034H82.8876L82.86 24.5475V25.7828Z" fill="#181818"/>
<path d="M88.0548 27.8397C87.8617 27.7641 87.695 27.6338 87.575 27.4647C87.4653 27.3019 87.4076 27.1096 87.4095 26.9133V26.7809C87.4019 26.7614 87.4019 26.7397 87.4095 26.7202C87.4293 26.7139 87.4505 26.7139 87.4702 26.7202H87.8231C87.843 26.7149 87.8639 26.7149 87.8838 26.7202C87.8915 26.7397 87.8915 26.7614 87.8838 26.7809V26.8857C87.8828 26.9769 87.9044 27.067 87.9467 27.1479C87.9891 27.2287 88.0508 27.2978 88.1264 27.3489C88.3156 27.479 88.5424 27.5429 88.7717 27.5309C88.9684 27.5423 89.163 27.4859 89.3231 27.371C89.3855 27.3208 89.4353 27.2568 89.4688 27.1841C89.5023 27.1114 89.5185 27.0319 89.5161 26.9519C89.5179 26.8459 89.4828 26.7426 89.4169 26.6596C89.3341 26.5685 89.2349 26.4937 89.1246 26.439C88.9456 26.3459 88.7615 26.2631 88.5731 26.1908C88.3532 26.1131 88.1394 26.0191 87.9334 25.9096C87.7822 25.8288 87.6504 25.7159 87.5474 25.5787C87.4332 25.4185 87.3786 25.2235 87.393 25.0273C87.3867 24.8855 87.4139 24.7442 87.4724 24.6149C87.5308 24.4855 87.6188 24.3718 87.7294 24.2828C87.996 24.0892 88.3214 23.9937 88.6503 24.0126C88.8961 24.0098 89.14 24.0567 89.3672 24.1504C89.5585 24.2318 89.7229 24.3657 89.8415 24.5365C89.9528 24.6988 90.0124 24.8911 90.0125 25.0879V25.1706C90.0173 25.18 90.0198 25.1904 90.0198 25.201C90.0198 25.2115 90.0173 25.2219 90.0125 25.2313C90.0029 25.2354 89.9925 25.2375 89.9821 25.2375C89.9717 25.2375 89.9614 25.2354 89.9518 25.2313H89.5933C89.5736 25.2376 89.5524 25.2376 89.5327 25.2313C89.529 25.2226 89.5272 25.2132 89.5272 25.2037C89.5272 25.1943 89.529 25.1849 89.5327 25.1762V25.11C89.5335 25.0184 89.513 24.9278 89.4728 24.8455C89.4326 24.7632 89.3738 24.6914 89.3011 24.6357C89.1215 24.498 88.8983 24.4295 88.6724 24.4427C88.4777 24.4278 88.2837 24.4782 88.1209 24.5861C88.0588 24.6325 88.0092 24.6935 87.9765 24.7638C87.9438 24.834 87.929 24.9113 87.9334 24.9887C87.9273 25.096 87.9607 25.2019 88.0272 25.2864C88.1028 25.3755 88.1969 25.447 88.3029 25.496C88.4297 25.5567 88.6172 25.6339 88.8544 25.7276C89.0705 25.8123 89.2822 25.908 89.4885 26.0144C89.6474 26.0956 89.7852 26.2127 89.8911 26.3563C90.0073 26.5158 90.0639 26.7109 90.051 26.9077C90.0546 27.1035 89.9988 27.2957 89.8911 27.4592C89.7769 27.6257 89.6156 27.7544 89.4279 27.8287C89.2023 27.921 88.9602 27.9661 88.7165 27.961C88.4903 27.9622 88.2659 27.9211 88.0548 27.8397Z" fill="#181818"/>
<path d="M95.0969 24.0898C95.1046 24.1093 95.1046 24.1309 95.0969 24.1504V24.4482C95.1018 24.4576 95.1043 24.468 95.1043 24.4786C95.1043 24.4891 95.1018 24.4995 95.0969 24.5089C95.0873 24.513 95.077 24.5151 95.0666 24.5151C95.0562 24.5151 95.0459 24.513 95.0363 24.5089H94.0106V27.8177C94.0154 27.827 94.0179 27.8374 94.0179 27.848C94.0179 27.8585 94.0154 27.8689 94.0106 27.8783C94.001 27.8824 93.9906 27.8845 93.9802 27.8845C93.9698 27.8845 93.9595 27.8824 93.9499 27.8783H93.5859C93.5763 27.8824 93.566 27.8845 93.5556 27.8845C93.5452 27.8845 93.5349 27.8824 93.5253 27.8783C93.5204 27.8689 93.5179 27.8585 93.5179 27.848C93.5179 27.8374 93.5204 27.827 93.5253 27.8177V24.5089H92.5216C92.512 24.513 92.5017 24.5151 92.4913 24.5151C92.4809 24.5151 92.4705 24.513 92.4609 24.5089C92.4561 24.4995 92.4536 24.4891 92.4536 24.4786C92.4536 24.468 92.4561 24.4576 92.4609 24.4482V24.1504C92.4533 24.1309 92.4533 24.1093 92.4609 24.0898C92.4807 24.0834 92.5019 24.0834 92.5216 24.0898H95.108C95.1043 24.09 95.1006 24.09 95.0969 24.0898Z" fill="#181818"/>
<path fill-rule="evenodd" clip-rule="evenodd" d="M102.481 19.9924H95.9848V4.55147H102.481C103.495 4.55147 104.499 4.75116 105.436 5.13915C106.372 5.52714 107.223 6.09583 107.94 6.81274C108.657 7.52965 109.226 8.38075 109.614 9.31744C110.002 10.2541 110.201 11.2581 110.201 12.2719C110.201 13.2858 110.002 14.2897 109.614 15.2264C109.226 16.1631 108.657 17.0142 107.94 17.7311C107.223 18.448 106.372 19.0167 105.436 19.4047C104.499 19.7927 103.495 19.9924 102.481 19.9924ZM102.481 17.2351C103.133 17.2351 103.778 17.1067 104.38 16.8573C104.982 16.6079 105.53 16.2423 105.991 15.7814C106.451 15.3205 106.817 14.7734 107.066 14.1713C107.316 13.5691 107.444 12.9237 107.444 12.2719C107.444 11.6202 107.316 10.9748 107.066 10.3726C106.817 9.77046 106.451 9.22332 105.991 8.76245C105.53 8.30158 104.982 7.936 104.38 7.68658C103.778 7.43715 103.133 7.30878 102.481 7.30878H98.7311V17.2351H102.481Z" fill="#181818"/>
<path fill-rule="evenodd" clip-rule="evenodd" d="M84.4041 19.9924C82.8771 19.9924 81.3844 19.5396 80.1148 18.6913C78.8452 17.8429 77.8556 16.6372 77.2713 15.2264C76.6869 13.8157 76.5341 12.2634 76.832 10.7657C77.1298 9.26812 77.8652 7.89247 78.9449 6.81274C80.0246 5.73301 81.4003 4.99771 82.8979 4.69981C84.3955 4.40192 85.9478 4.55481 87.3586 5.13915C88.7693 5.7235 89.9751 6.71305 90.8234 7.98267C91.6717 9.2523 92.1245 10.745 92.1245 12.2719C92.1245 14.3195 91.3111 16.2833 89.8633 17.7311C88.4154 19.179 86.4517 19.9924 84.4041 19.9924ZM84.4041 17.2351C85.3857 17.2351 86.3453 16.944 87.1615 16.3987C87.9776 15.8533 88.6138 15.0782 88.9894 14.1713C89.3651 13.2644 89.4634 12.2664 89.2719 11.3037C89.0804 10.3409 88.6077 9.45656 87.9136 8.76245C87.2195 8.06834 86.3351 7.59565 85.3723 7.40414C84.4096 7.21264 83.4117 7.31093 82.5048 7.68658C81.5979 8.06223 80.8227 8.69837 80.2774 9.51455C79.732 10.3307 79.4409 11.2903 79.4409 12.2719C79.4409 13.5883 79.9638 14.8506 80.8946 15.7814C81.8254 16.7122 83.0878 17.2351 84.4041 17.2351Z" fill="#181818"/>
<path fill-rule="evenodd" clip-rule="evenodd" d="M62.4835 4.55147H65.511L68.7591 15.0789L72.0017 4.55147H75.0292L70.2701 19.9924H67.226L64 9.46499L60.7574 19.9924H57.7298L52.9707 4.55147H55.9983L59.2408 15.0789L62.4835 4.55147Z" fill="#181818"/>
<path fill-rule="evenodd" clip-rule="evenodd" d="M43.5959 20.5439C41.9598 20.5439 40.3605 20.0587 39.0002 19.1498C37.6399 18.2409 36.5797 16.949 35.9536 15.4375C35.3275 13.926 35.1637 12.2628 35.4829 10.6582C35.8021 9.05357 36.5899 7.57965 37.7467 6.4228C38.9036 5.26595 40.3775 4.47812 41.9821 4.15895C43.5867 3.83977 45.2499 4.00358 46.7614 4.62967C48.2729 5.25575 49.5648 6.31599 50.4737 7.6763C51.3827 9.03661 51.8678 10.6359 51.8678 12.2719C51.8678 13.3582 51.6538 14.4339 51.2381 15.4375C50.8224 16.4411 50.2131 17.353 49.445 18.1211C48.6769 18.8892 47.765 19.4985 46.7614 19.9142C45.7578 20.3299 44.6822 20.5439 43.5959 20.5439ZM50.048 12.68C50.1302 12.6365 50.1975 12.5693 50.241 12.487C50.3156 12.3612 50.3371 12.211 50.3009 12.0693C50.2647 11.9276 50.1737 11.8061 50.048 11.7315L40.9599 6.31063C40.8762 6.26099 40.7808 6.23439 40.6834 6.23354C40.5861 6.23269 40.4903 6.25762 40.4057 6.30579C40.3211 6.35396 40.2508 6.42366 40.2019 6.50781C40.153 6.59196 40.1272 6.68755 40.1272 6.78489V17.6046C40.128 17.7052 40.1546 17.8039 40.2044 17.8913C40.2799 18.0162 40.4018 18.106 40.5434 18.1411C40.685 18.1763 40.8348 18.1539 40.9599 18.0788L50.048 12.68Z" fill="#181818"/>
<path fill-rule="evenodd" clip-rule="evenodd" d="M32.0152 11.169V16.5954C31.2896 17.6466 30.319 18.5053 29.1871 19.0972C28.0552 19.6891 26.7962 19.9963 25.5189 19.9924C24.5051 19.9924 23.5011 19.7927 22.5644 19.4047C21.6277 19.0167 20.7766 18.448 20.0597 17.7311C19.3428 17.0142 18.7741 16.1631 18.3861 15.2264C17.9982 14.2897 17.7985 13.2858 17.7985 12.2719C17.7985 11.2581 17.9982 10.2541 18.3861 9.31744C18.7741 8.38075 19.3428 7.52965 20.0597 6.81274C20.7766 6.09583 21.6277 5.52714 22.5644 5.13915C23.5011 4.75116 24.5051 4.55147 25.5189 4.55147C26.7836 4.54695 28.0306 4.84793 29.1539 5.4288C30.2773 6.00968 31.2437 6.85326 31.971 7.88781L29.5281 9.5422C28.9481 8.67204 28.108 8.00731 27.1278 7.64289C26.1476 7.27847 25.0774 7.23297 24.0698 7.51288C23.0622 7.7928 22.1687 8.38383 21.517 9.20162C20.8652 10.0194 20.4884 11.0222 20.4403 12.0668C20.3923 13.1115 20.6754 14.1446 21.2493 15.0188C21.8232 15.893 22.6586 16.5636 23.6363 16.9348C24.6139 17.3061 25.6838 17.359 26.6933 17.0862C27.7029 16.8133 28.6004 16.2285 29.2578 15.4153V13.9263H25.3976V11.169H32.0152Z" fill="#181818"/>
</svg>
