<svg width="128" height="32" viewBox="0 0 128 32" fill="none" xmlns="http://www.w3.org/2000/svg">
<path d="M51.6493 18.6834H49.8066C49.8066 18.6834 48.668 15.5574 47.964 13.9685H43.5109C42.8967 15.5055 41.7726 18.6834 41.7726 18.6834H40.5094L45.9736 6.47936H46.3763L51.6493 18.6834ZM45.7563 8.76618L43.8441 13.236H47.7119L45.7563 8.76618Z" fill="#181818"/>
<path d="M53.2369 9.28525H54.4509V18.6719H53.2369V9.28525Z" fill="#181818"/>
<path d="M57.0005 9.28525H59.9238C62.0445 9.28525 62.9833 9.98312 62.9833 11.3702C62.9833 12.962 61.5346 13.7291 60.1555 13.9656L62.9977 17.5443L63.6467 18.3287L63.9075 18.6719H62.3227C62.3227 18.6719 61.7432 17.8615 61.4535 17.478L59.8282 15.3786L58.7243 14.0896H58.2028V18.6719H56.9889L57.0005 9.28525ZM58.2144 13.5647C58.8071 13.6115 59.4032 13.5883 59.9904 13.4955C60.9986 13.2908 61.7548 12.6045 61.7548 11.5346C61.7548 10.5887 61.2739 9.97159 60.2396 9.80433C59.5647 9.74915 58.8864 9.74915 58.2115 9.80433L58.2144 13.5647Z" fill="#181818"/>
<path d="M65.4227 9.28525H68.346C70.4668 9.28525 71.4055 9.98312 71.4055 11.3702C71.4055 12.962 69.9714 13.7291 68.5807 13.9656L71.42 17.5443L72.0806 18.3143L72.3413 18.6574H70.7565C70.7565 18.6574 70.1771 17.8471 69.8874 17.4636L68.2591 15.3642L67.1582 14.0752H66.6338V18.6719C66.4136 18.6719 65.6139 18.6719 65.4198 18.6719L65.4227 9.28525ZM66.6367 13.5647C67.2293 13.6115 67.8255 13.5883 68.4127 13.4955C69.4209 13.2908 70.1771 12.6045 70.1771 11.5346C70.1771 10.5887 69.6962 9.97159 68.6618 9.80433C67.987 9.74915 67.3087 9.74915 66.6338 9.80433L66.6367 13.5647Z" fill="#181818"/>
<path d="M73.1844 13.98C73.1844 10.9751 75.4298 9.07762 78.2836 9.07762C80.8737 9.07762 83.4986 10.4791 83.4986 13.7695C83.4986 16.8291 81.3199 18.8334 78.2459 18.8334C75.1719 18.8334 73.1844 16.9157 73.1844 13.98ZM81.2967 10.8656C80.9492 10.4425 80.5103 10.103 80.0127 9.87234C79.5151 9.64166 78.9715 9.52575 78.4226 9.53326C75.9947 9.53326 74.5345 11.3587 74.5345 14.1473C74.5345 16.9358 76.2439 18.3864 78.3009 18.3864C81.1982 18.3864 82.2557 15.3959 82.1601 13.8848C82.1572 12.7458 82.0065 11.7855 81.288 10.8656H81.2967Z" fill="#181818"/>
<path d="M85.1066 16.8205C85.6454 17.6856 86.2654 18.2451 87.3403 18.2451C87.599 18.2418 87.8544 18.1871 88.0915 18.0841C88.3286 17.9812 88.5427 17.8321 88.7211 17.6457C88.8995 17.4592 89.0387 17.2391 89.1305 16.9984C89.2222 16.7576 89.2647 16.5011 89.2554 16.2437C89.2554 13.6916 84.9414 14.8019 84.9414 11.7163C84.9414 9.94563 86.3466 9.08051 88.0009 9.08051C88.7154 9.06747 89.4125 9.30078 89.9739 9.74089C89.8268 10.108 89.702 10.4835 89.6002 10.8656H89.464C89.343 10.5119 89.1123 10.2056 88.805 9.99102C88.4978 9.77642 88.1299 9.66459 87.7546 9.67168C86.8014 9.67168 86.0163 10.3032 86.0163 11.275C86.0163 13.8012 90.3621 12.7861 90.3621 15.7074C90.3621 17.6683 88.8324 18.8362 86.9579 18.8362C86.2828 18.8362 85.179 18.5479 84.7096 18.0403C84.8386 17.6436 84.927 17.2349 84.9733 16.8205H85.1066Z" fill="#181818"/>
<path d="M95.4874 18.6978H94.2734V9.94563C92.8827 9.94563 91.2545 10.11 91.2545 10.11V9.28525H98.3672V10.1071C98.3672 10.1071 96.7129 9.94275 95.4874 9.94275V18.6978Z" fill="#181818"/>
<path d="M99.952 9.28525H101.166V18.6719H99.952V9.28525Z" fill="#181818"/>
<path d="M101.288 20.281H35.7753L35.7782 20.0042H101.288V20.281Z" fill="#181818"/>
<path d="M24.0038 21.9536L25.1424 26.3225L26.3651 21.9536H26.9619L28.1903 26.3225H28.2048L29.3492 21.9536H29.8273L28.4569 26.9454H27.9499L26.678 22.4784L25.4032 26.9454H24.8817L23.491 21.9536H24.0038Z" fill="#181818"/>
<path d="M35.2306 21.9536V22.3602H32.2465V24.1625H35.0423V24.5691H32.2465V26.5387H35.2538V26.9454H31.7771V21.9536H35.2306Z" fill="#181818"/>
<path d="M43.876 21.9536V22.3602H41.1729V24.1625H43.5747V24.5691H41.1729V26.9454H40.6948V21.9536H43.876Z" fill="#181818"/>
<path d="M46.3821 21.9536V26.9454H45.904V21.9536H46.3821Z" fill="#181818"/>
<path d="M48.9085 21.9536L50.3281 24.0443L51.797 21.9536H52.3301L50.6092 24.3875L52.4228 26.9454H51.8434L50.3194 24.7422L48.7752 26.9454H48.2508L50.0471 24.373L48.3493 21.9536H48.9085Z" fill="#181818"/>
<path d="M59.8484 21.9536C60.0561 21.9508 60.2628 21.9829 60.4598 22.0487C60.636 22.1103 60.797 22.2086 60.932 22.3371C61.0601 22.4644 61.159 22.6179 61.2217 22.787C61.3608 23.1759 61.3608 23.6006 61.2217 23.9895C61.1605 24.1593 61.0614 24.3131 60.932 24.4394C60.7977 24.5688 60.6365 24.6672 60.4598 24.7277C60.2628 24.7935 60.0561 24.8257 59.8484 24.8229H58.1101V26.9627H57.6321V21.9536H59.8484ZM59.7441 24.4019C60.0352 24.4147 60.3215 24.3248 60.5525 24.1481C60.7497 23.9404 60.8596 23.6654 60.8596 23.3796C60.8596 23.0938 60.7497 22.8188 60.5525 22.6111C60.3211 22.4354 60.0348 22.3466 59.7441 22.3602H58.1014V24.4019H59.7441Z" fill="#181818"/>
<path d="M64.9331 21.9536L66.9003 26.9454H66.3875L65.7762 25.3939H63.4932L62.8905 26.9454H62.3835L64.4116 21.9536H64.9331ZM65.6139 24.9873L64.6463 22.4294L63.6467 24.9873H65.6139Z" fill="#181818"/>
<path d="M69.2732 21.9536V26.9454H68.7951V21.9536H69.2732Z" fill="#181818"/>
<path d="M72.2486 21.9536L75.1719 26.1754H75.1864V21.9536H75.6616V26.9454H75.1285L72.2081 22.7235H72.1936V26.9454H71.7155V21.9536H72.2486Z" fill="#181818"/>
<path d="M84.6082 21.9536V22.3602H81.8993V24.1625H84.3011V24.5691H81.8993V26.9454H81.4213V21.9536H84.6082Z" fill="#181818"/>
<path d="M88.2182 21.9536L90.1825 26.9454H89.6697L89.0613 25.3939H86.7783L86.1727 26.9454H85.6657L87.6938 21.9536H88.2182ZM88.899 24.9873L87.9285 22.4294L86.926 24.9873H88.899Z" fill="#181818"/>
<path d="M92.3873 25.9447C92.4646 26.1103 92.5846 26.2525 92.735 26.3571C92.8933 26.4649 93.0715 26.5404 93.2594 26.5791C93.4718 26.624 93.6883 26.6463 93.9055 26.6454C94.0502 26.643 94.1941 26.6237 94.3343 26.5878C94.4869 26.5518 94.6327 26.4914 94.7659 26.409C94.8983 26.3291 95.0119 26.2219 95.0991 26.0946C95.1913 25.9576 95.2379 25.7952 95.2324 25.6304C95.2352 25.5027 95.2021 25.3769 95.1368 25.267C95.0727 25.1652 94.989 25.077 94.8905 25.0075C94.7877 24.9361 94.6756 24.8788 94.5573 24.8373C94.4357 24.7941 94.3169 24.7566 94.201 24.7277L93.0826 24.4567C92.9383 24.42 92.797 24.3728 92.6597 24.3154C92.5262 24.2642 92.4034 24.1889 92.2975 24.0933C92.1917 23.9971 92.1069 23.8803 92.0483 23.7502C91.98 23.5939 91.9474 23.4245 91.9527 23.2541C91.9565 23.1094 91.9799 22.9659 92.0223 22.8274C92.0746 22.656 92.1647 22.4983 92.2859 22.366C92.4354 22.2088 92.6159 22.0842 92.8161 21.9997C93.092 21.8896 93.3882 21.8385 93.6853 21.8498C93.9254 21.8479 94.1645 21.881 94.3951 21.9478C94.6053 22.0053 94.8022 22.1033 94.9745 22.2362C95.1426 22.3666 95.2801 22.5319 95.3773 22.7207C95.4817 22.9301 95.5334 23.1617 95.5279 23.3955H95.0499C95.0456 23.2214 95.001 23.0506 94.9195 22.8966C94.8502 22.7578 94.7514 22.6358 94.6298 22.539C94.5012 22.4416 94.3559 22.3683 94.201 22.3227C94.0366 22.2735 93.8656 22.2492 93.694 22.2506C93.5341 22.2501 93.3747 22.2675 93.2188 22.3025C93.0763 22.3332 92.9407 22.3899 92.819 22.4698C92.6985 22.545 92.5989 22.6491 92.5293 22.7726C92.4553 22.918 92.4195 23.0797 92.425 23.2426C92.4251 23.3416 92.4448 23.4396 92.4829 23.531C92.5218 23.6148 92.5781 23.6895 92.6481 23.7502C92.7212 23.8112 92.8033 23.8608 92.8914 23.8972C92.9852 23.936 93.0822 23.9669 93.1812 23.9895L94.4009 24.2779C94.5728 24.3224 94.7413 24.3793 94.905 24.448C95.0544 24.5129 95.1938 24.5983 95.3193 24.7018C95.4418 24.8012 95.5407 24.9262 95.609 25.068C95.6804 25.2337 95.715 25.4127 95.7104 25.5929C95.709 25.6672 95.7032 25.7413 95.6931 25.8149C95.6781 25.9143 95.6498 26.0113 95.609 26.1033C95.5583 26.2163 95.4941 26.3228 95.4178 26.4205C95.3255 26.5373 95.2114 26.6352 95.0817 26.7089C94.9163 26.8044 94.7376 26.8753 94.5516 26.9194C94.0306 27.0333 93.4904 27.0264 92.9726 26.8992C92.7426 26.8526 92.524 26.7615 92.3294 26.631C92.1489 26.4885 92.0074 26.3031 91.918 26.0918C91.8161 25.8414 91.7735 25.571 91.7934 25.3016H92.2714C92.2601 25.522 92.2998 25.742 92.3873 25.9447Z" fill="#181818"/>
<path d="M101.311 21.9536V22.3602H99.5725V26.9454H99.0799V22.3602H97.3416V21.9536H101.311Z" fill="#181818"/>
<path d="M30.427 5L23.4736 20.2839H37.3398L44.2932 5H30.427ZM36.6532 7.10225C36.9052 6.66969 37.3688 6.46783 37.6933 6.65239C38.0178 6.83695 38.0699 7.33872 37.8208 7.77417C37.5716 8.20962 37.1022 8.40859 36.7806 8.22403C36.459 8.03947 36.4127 7.5377 36.6532 7.10225ZM26.2231 18.9026L30.8268 10.2801L32.2262 12.8265L31.357 13.3744L30.8268 12.5093L27.1676 18.9026H26.2231ZM34.3846 18.7497L32.5217 15.4536L33.3735 15.0066L35.3523 18.7555L34.3846 18.7497ZM35.8332 15.866C35.8332 15.866 36.7401 13.7926 35.4595 13.7089C32.8346 13.5417 27.3936 18.5479 27.3936 18.5479C28.6139 16.728 30.1774 15.161 31.9973 13.9339C33.3474 13.0687 35.3407 12.0335 36.7053 12.1517C38.0178 12.293 37.3978 14.8105 35.8332 15.8804V15.866ZM36.7488 11.0155C33.3619 11.2203 32.6086 12.169 32.6086 12.169C32.6086 12.169 33.1012 10.0956 36.4938 10.012C39.3418 9.93987 40.04 9.12953 40.4167 8.75464C40.2457 9.28525 39.2549 10.8742 36.7488 11.0155Z" fill="#181818"/>
<path d="M102.701 10.2196C102.707 10.0419 102.765 9.86975 102.868 9.72452C102.971 9.5793 103.115 9.46736 103.281 9.40259C103.448 9.33782 103.629 9.32306 103.804 9.36015C103.979 9.39724 104.139 9.48454 104.264 9.61123C104.389 9.73792 104.474 9.89843 104.509 10.0729C104.544 10.2473 104.526 10.428 104.458 10.5925C104.391 10.7571 104.276 10.8983 104.129 10.9986C103.981 11.0989 103.807 11.1539 103.629 11.1568C103.505 11.1576 103.383 11.1338 103.269 11.0868C103.156 11.0398 103.053 10.9706 102.966 10.8832C102.88 10.7958 102.812 10.6921 102.766 10.5781C102.721 10.4641 102.699 10.3422 102.701 10.2196ZM102.858 10.2196C102.866 10.3652 102.916 10.5053 103.003 10.6228C103.09 10.7403 103.209 10.8301 103.346 10.8812C103.483 10.9323 103.632 10.9425 103.775 10.9105C103.918 10.8786 104.049 10.8058 104.151 10.7013C104.253 10.5967 104.322 10.4647 104.35 10.3216C104.377 10.1785 104.363 10.0304 104.307 9.89544C104.252 9.76049 104.158 9.64453 104.038 9.56177C103.917 9.47901 103.775 9.43302 103.629 9.42944C103.525 9.4294 103.423 9.44998 103.328 9.48996C103.233 9.52994 103.147 9.58852 103.075 9.66221C103.003 9.7359 102.947 9.82321 102.91 9.91895C102.872 10.0147 102.855 10.1169 102.858 10.2196ZM103.284 9.70052H103.675C103.857 9.70052 103.965 9.78991 103.965 9.94852C103.966 10.0149 103.943 10.0794 103.9 10.1299C103.856 10.1804 103.796 10.2133 103.73 10.2225C103.811 10.3695 103.901 10.5108 103.988 10.6493L104.046 10.7444H103.811L103.539 10.2542H103.49V10.7444H103.287L103.284 9.70052ZM103.487 10.2052C103.658 10.2196 103.736 10.1446 103.736 9.98601C103.736 9.8274 103.652 9.79568 103.571 9.79568H103.487V10.2052Z" fill="#181818"/>
</svg>
