<svg width="128" height="32" viewBox="0 0 128 32" fill="none" xmlns="http://www.w3.org/2000/svg">
<path d="M22.2759 14.9609L20.0953 17.3789C21.8327 18.8139 24.2109 19.5425 26.7182 19.5456C30.15 19.5456 32.4325 17.9526 32.4325 15.2785V15.2406C32.4325 12.791 30.413 11.8175 27.1629 11.1632C25.1976 10.7507 24.7194 10.4899 24.7194 9.89095V9.85302C24.7194 9.38522 25.1768 9.01225 26.1332 9.01225C27.3797 9.01225 28.7983 9.46108 30.0894 10.3019L32.0484 7.73844C30.5134 6.59897 28.6357 6 26.2336 6C22.8417 6 20.7616 7.75899 20.7536 10.196V10.2339C20.7536 12.9206 23.076 13.7108 26.0838 14.3429C28.0109 14.7539 28.4747 15.0541 28.4747 15.5962V15.6341C28.4747 16.1952 27.9089 16.5318 26.8601 16.5318C25.1999 16.519 23.5897 15.9672 22.2759 14.9609Z" fill="#181818"/>
<path d="M87.4909 12.6519V12.6851C87.4909 16.1462 90.6055 18.6812 94.482 18.6812C97.485 18.6812 99.2144 17.5717 100.49 16.064L97.6603 14.3414C96.8458 15.1869 96.0122 15.7495 94.5983 15.7495C92.6983 15.7495 91.361 14.3904 91.361 12.6519V12.6187C91.361 10.9309 92.6983 9.55591 94.5983 9.55591C95.8958 9.55591 96.7884 10.0853 97.5631 10.9135L100.392 9.05018C99.1905 7.62623 97.4085 6.63216 94.6366 6.63216C90.5274 6.63216 87.4909 9.2746 87.4909 12.6519Z" fill="#181818"/>
<path fill-rule="evenodd" clip-rule="evenodd" d="M100.974 15.3908V15.3639C100.974 12.6614 103.258 10.4646 106.303 10.4646C109.347 10.4646 111.603 12.6298 111.603 15.3323V15.3591C111.603 18.0616 109.318 20.2584 106.274 20.2584C103.23 20.2584 100.974 18.0932 100.974 15.3908ZM108.812 15.3908V15.3639C108.819 15.0304 108.758 14.6989 108.633 14.389C108.509 14.0792 108.322 13.7974 108.086 13.5603C107.849 13.3233 107.567 13.1358 107.255 13.0091C106.944 12.8823 106.61 12.8189 106.274 12.8226C104.781 12.8226 103.78 13.9779 103.78 15.337V15.3639C103.78 16.7215 104.808 17.9052 106.303 17.9052C107.798 17.9052 108.812 16.7467 108.812 15.3908Z" fill="#181818"/>
<path d="M33.2424 14.9512L33.2423 14.9719C33.2247 17.303 34.8203 18.1328 37.377 17.8056C39.9337 17.4785 41.6041 16.3595 41.6249 14.1976C41.632 13.4542 41.6372 12.8969 41.6424 12.339L41.6425 12.335L41.6425 12.3345L41.6425 12.3304C41.6476 11.7774 41.6528 11.2228 41.6599 10.4852C40.6446 10.5168 40.1377 10.5326 39.1239 10.5674C39.1146 11.7052 39.1078 12.4268 39.0992 13.3419L39.0992 13.3444C39.0961 13.678 39.0927 14.0374 39.0889 14.452C39.0809 15.4176 38.4242 15.9344 37.4168 16.0403C36.4094 16.1462 35.7639 15.7274 35.7719 14.6891C35.7862 13.0881 35.7926 12.2884 35.8053 10.6875L33.2725 10.7886C33.2614 12.4554 33.2551 13.2914 33.2424 14.9512Z" fill="#181818"/>
<path fill-rule="evenodd" clip-rule="evenodd" d="M43.1391 10.4425C44.8431 10.3919 45.6894 10.3698 47.3998 10.3303C48.7769 10.2987 49.7301 10.5405 50.3294 10.9356C50.5746 11.08 50.7768 11.2862 50.9154 11.5333C51.054 11.7804 51.1241 12.0595 51.1185 12.3422V12.3595C51.1105 13.2936 50.3709 13.9399 49.2456 14.3335C50.0999 15.1521 50.5287 15.5551 51.3846 16.3516C50.2274 16.4243 49.6488 16.4638 48.4932 16.5524C47.7711 15.8507 47.4109 15.4951 46.6904 14.7744H46.6649L45.5954 14.8471C45.5954 15.3304 45.5911 15.6635 45.5863 16.0331L45.5863 16.0344L45.5863 16.0347L45.5863 16.0355L45.5863 16.0361L45.5863 16.0367L45.5862 16.0372L45.5862 16.0376L45.5862 16.038L45.5862 16.0391C45.5833 16.2624 45.5803 16.4993 45.5779 16.791C44.5769 16.8795 44.0764 16.9269 43.077 17.0281C43.0897 15.7108 43.0989 14.723 43.108 13.7353C43.1172 12.7475 43.1264 11.7598 43.1391 10.4425ZM47.2563 13.3663C48.1075 13.322 48.6 13.0138 48.6032 12.5603V12.5413C48.6032 12.0514 48.0947 11.819 47.2579 11.8507C46.6028 11.8744 46.276 11.887 45.6209 11.9139C45.6209 12.5302 45.6209 12.8384 45.6082 13.4548L45.937 13.4366C46.3978 13.4111 46.7168 13.3935 47.2563 13.3663Z" fill="#181818"/>
<path d="M59.6094 10.1422C56.7244 10.1644 55.2803 10.1817 52.3952 10.2307C52.3777 12.6551 52.3697 13.8672 52.3681 16.2963C53.3707 16.2378 53.8712 16.211 54.8738 16.1636C54.8866 15.3117 54.8866 14.885 54.8866 14.0316C56.5953 13.9716 57.4512 13.9478 59.16 13.9115V12.565C57.4528 12.5934 56.5985 12.6124 54.8897 12.6598V11.6452C56.777 11.6041 57.7222 11.5883 59.6094 11.5646V10.1422Z" fill="#181818"/>
<path fill-rule="evenodd" clip-rule="evenodd" d="M62.8308 10.0838H65.2393C65.8419 11.0004 66.3275 11.7363 66.7894 12.4361L66.79 12.437C67.5008 13.5141 68.1555 14.5059 69.0935 15.9407C68.0176 15.9218 67.4788 15.917 66.4029 15.9123L65.743 14.8771C64.3483 14.8771 63.6501 14.8771 62.2538 14.8961L61.6051 15.9439C60.5499 15.9613 60.0223 15.9739 58.9671 16.004C60.4625 13.6861 61.2348 12.5115 62.6685 10.3306L62.8308 10.0838ZM65.0161 13.627L64.0104 11.9834L62.9902 13.6365C63.8031 13.6302 64.2096 13.6286 65.0161 13.627Z" fill="#181818"/>
<path d="M69.0728 13.0344V13.0518C69.0759 14.7855 71.1624 16.0846 73.7494 16.1825C75.753 16.2568 76.8991 15.7511 77.7455 15.0083C76.9883 14.6148 76.6106 14.4204 75.855 14.0395C75.2873 14.5113 74.5567 14.7454 73.818 14.6922C72.5508 14.6511 71.6534 13.9494 71.6534 13.0707V13.0549C71.6502 12.2015 72.538 11.5188 73.802 11.5393C74.5301 11.5334 75.2345 11.7959 75.7785 12.2758C76.5293 11.9091 76.9039 11.7258 77.6546 11.3528C76.8481 10.5942 75.6622 10.0664 73.8195 10.0474C71.0891 10.0205 69.0728 11.3418 69.0728 13.0344Z" fill="#181818"/>
<path d="M78.7783 10.2355C81.6793 10.2845 83.1298 10.3177 86.0292 10.3935C86.0292 10.7774 86.0324 11.0405 86.0359 11.3348L86.0359 11.3355C86.038 11.5087 86.0402 11.6928 86.042 11.9186C84.1292 11.838 83.1729 11.8032 81.2601 11.7416L81.2681 12.6788C83.0007 12.7483 83.8662 12.7862 85.5973 12.8748C85.5973 13.2301 85.6004 13.4732 85.604 13.745L85.604 13.7462C85.6061 13.9057 85.6083 14.0751 85.61 14.2829C83.95 14.1753 83.0844 14.1287 81.4881 14.0428L81.2793 14.0316L81.2904 15.0083C83.2303 15.1221 84.201 15.1885 86.1376 15.3386C86.1376 15.708 86.1411 15.9655 86.145 16.2466C86.1475 16.4298 86.1501 16.6231 86.152 16.8637C83.2239 16.5919 81.7574 16.4812 78.8198 16.3058C78.8054 13.8799 78.7975 12.6646 78.7783 10.2355Z" fill="#181818"/>
<path d="M33.9898 9.10075H34.3931V7.26432H35.1136V6.91189H33.2694V7.26432H33.9898V9.10075Z" fill="#181818"/>
<path d="M36.5816 8.17937V9.10075H36.1863V6.91189H36.5816V7.8222H37.6735V6.91189H38.0783V9.10075H37.6814V8.17937H36.5816Z" fill="#181818"/>
<path d="M39.701 7.26432H40.9873V6.91189H39.3041V9.10549H41.0032V8.75938H39.701V8.17463H40.8406V7.82694H39.701V7.26432Z" fill="#181818"/>
<path d="M44.113 7.59779C44.1321 7.63371 44.1608 7.66377 44.1959 7.68471C44.2456 7.7165 44.2992 7.74199 44.3553 7.76057C44.4254 7.7827 44.5147 7.8064 44.6247 7.83169C44.7326 7.85802 44.8391 7.8902 44.9435 7.92809C45.0268 7.95882 45.1044 8.00315 45.173 8.05927C45.2315 8.10771 45.2788 8.16808 45.3117 8.23627C45.3438 8.31229 45.3595 8.3941 45.3579 8.47649C45.3598 8.57245 45.3396 8.66757 45.2989 8.75464C45.2616 8.8339 45.2072 8.90404 45.1395 8.9601C45.0632 9.01934 44.9761 9.06335 44.8829 9.08969C44.7766 9.11917 44.6666 9.13354 44.5561 9.13236C44.3845 9.13307 44.2141 9.10419 44.0525 9.04702C43.8885 8.98813 43.7375 8.89853 43.6077 8.78309L43.8484 8.5081C43.9489 8.59339 44.0611 8.66416 44.1816 8.7183C44.3031 8.76905 44.4339 8.79433 44.5657 8.79257C44.669 8.79795 44.7715 8.77145 44.859 8.71671C44.8933 8.69523 44.9215 8.66532 44.9408 8.62989C44.96 8.59445 44.9698 8.55468 44.969 8.51442C44.9695 8.47742 44.9618 8.44076 44.9467 8.40696C44.9294 8.3717 44.9023 8.34209 44.8686 8.32161C44.8191 8.2898 44.7654 8.26481 44.7092 8.24733C44.6454 8.22416 44.5604 8.20045 44.4541 8.17622C44.3459 8.15292 44.2394 8.1223 44.1353 8.08455C44.0493 8.05624 43.9685 8.01406 43.8962 7.9597C43.8338 7.91186 43.7836 7.85015 43.7496 7.77954C43.7142 7.69722 43.6973 7.60822 43.7002 7.51877C43.6981 7.43126 43.7155 7.34438 43.7512 7.26432C43.7898 7.18679 43.8441 7.11794 43.9106 7.06203C43.983 7.0041 44.0657 6.96015 44.1545 6.93244C44.2577 6.90118 44.3653 6.88625 44.4733 6.88819C44.6233 6.88402 44.773 6.90431 44.9164 6.94824C45.0516 6.99627 45.1781 7.06564 45.291 7.1537L45.0774 7.44449C44.9832 7.37726 44.881 7.32204 44.7729 7.28013C44.6713 7.24101 44.5632 7.22118 44.4541 7.22165C44.3569 7.21516 44.2605 7.24255 44.1816 7.29909C44.1512 7.32008 44.1265 7.34796 44.1093 7.38041C44.0921 7.41286 44.083 7.44893 44.0827 7.48558C44.0838 7.52482 44.0942 7.56327 44.113 7.59779Z" fill="#181818"/>
<path d="M48.3242 8.58238C48.3732 8.4449 48.3969 8.29985 48.3944 8.15409L48.4071 6.90715H48.0102V8.17147C48.0202 8.33864 47.9629 8.50291 47.8508 8.62821C47.7949 8.6815 47.7286 8.72298 47.656 8.75015C47.5834 8.77731 47.506 8.78959 47.4284 8.78625C47.3506 8.79067 47.2726 8.77889 47.1996 8.75168C47.1266 8.72446 47.0601 8.6824 47.0045 8.62821C46.8901 8.49731 46.8328 8.32681 46.8451 8.15409V6.90873H46.4482V8.17305C46.4452 8.31511 46.4684 8.4565 46.5167 8.59028C46.5579 8.70409 46.6243 8.80725 46.7112 8.89214C46.7985 8.97467 46.9029 9.03725 47.0172 9.07546C47.1459 9.11681 47.2805 9.13709 47.4157 9.13552C47.553 9.13725 47.6897 9.11697 47.8206 9.07546C47.9357 9.03733 48.0408 8.97415 48.1282 8.89056C48.2158 8.80353 48.2828 8.69826 48.3242 8.58238Z" fill="#181818"/>
<path fill-rule="evenodd" clip-rule="evenodd" d="M51.0515 9.10075L50.4904 8.339H49.9883V9.10075H49.593V6.91189H50.6068C50.726 6.91097 50.8447 6.92748 50.9591 6.96089C51.0557 6.98987 51.1459 7.0365 51.2252 7.09838C51.297 7.1582 51.3542 7.23328 51.3926 7.31806C51.4321 7.40937 51.4516 7.50793 51.45 7.60727C51.4517 7.69064 51.4382 7.77363 51.4101 7.85223C51.3848 7.92209 51.347 7.98686 51.2986 8.04346C51.2496 8.099 51.192 8.14648 51.128 8.18412C51.059 8.22316 50.985 8.25293 50.9081 8.27262L51.5217 9.10075H51.0515ZM50.9208 7.35283C50.8171 7.28683 50.6947 7.25579 50.5717 7.26432H49.9883V8.00237H50.5749C50.6975 8.0091 50.8187 7.97334 50.9176 7.90123C50.9588 7.86968 50.9919 7.82886 51.0141 7.78214C51.0362 7.73543 51.0469 7.68416 51.0451 7.63256C51.05 7.57931 51.0411 7.52572 51.0193 7.4768C50.9976 7.42788 50.9637 7.38522 50.9208 7.35283Z" fill="#181818"/>
<path d="M52.9866 7.26432H54.2809V6.91189H52.5913V9.10233H52.9866V8.21256H54.1342V7.86803H52.9866V7.26432Z" fill="#181818"/>
<path fill-rule="evenodd" clip-rule="evenodd" d="M57.2887 9.10075H56.8662L56.6351 8.5729H55.5608L55.3265 9.10075H54.9168L55.9179 6.89767H56.2876L57.2887 9.10075ZM56.09 7.35598L55.6995 8.23153H56.4821L56.09 7.35598Z" fill="#181818"/>
<path d="M59.7768 9.03437C59.8489 9.00006 59.9177 8.95933 59.9824 8.91268C60.0502 8.86444 60.1137 8.81051 60.1721 8.75148L59.9155 8.50178C59.8255 8.58323 59.7254 8.65282 59.6174 8.70881C59.5063 8.76243 59.3839 8.78898 59.2604 8.78625C59.1567 8.7872 59.054 8.76619 58.9591 8.72461C58.8678 8.68566 58.7854 8.62874 58.7169 8.5573C58.6484 8.48586 58.5952 8.40137 58.5606 8.30897C58.5232 8.21158 58.5043 8.10817 58.5048 8.00395C58.5041 7.90023 58.523 7.7973 58.5606 7.70051C58.5968 7.60918 58.651 7.52591 58.72 7.45555C58.7887 7.38612 58.8698 7.32986 58.9591 7.28961C59.054 7.24804 59.1567 7.22702 59.2604 7.22797C59.3806 7.22595 59.4996 7.25194 59.6079 7.30383C59.7128 7.3555 59.8099 7.42146 59.8964 7.4998L60.153 7.21533C60.0985 7.16608 60.041 7.12016 59.9808 7.07783C59.9188 7.03549 59.8526 6.99948 59.7832 6.97037C59.7071 6.93895 59.6281 6.91513 59.5473 6.89925C59.4536 6.88277 59.3587 6.87484 59.2636 6.87554C59.0998 6.87333 58.9373 6.90341 58.7854 6.96405C58.6475 7.02086 58.5219 7.10349 58.4156 7.20743C58.3118 7.31129 58.2295 7.43423 58.1733 7.56934C58.1154 7.70921 58.0862 7.85909 58.0872 8.01027C58.0858 8.16267 58.1156 8.31376 58.1749 8.45437C58.2306 8.58836 58.313 8.70984 58.4172 8.81154C58.5219 8.91439 58.6459 8.99599 58.7822 9.05176C58.9289 9.11101 59.086 9.14056 59.2444 9.13868C59.3418 9.13997 59.4391 9.13096 59.5345 9.11181C59.6182 9.09605 59.6996 9.07004 59.7768 9.03437Z" fill="#181818"/>
<path d="M62.9185 7.26432H61.6322V7.82694H62.7719V8.17463H61.6322V8.75938H62.9344V9.10549H61.2353V6.91189H62.9185V7.26432Z" fill="#181818"/>
<path d="M67.2748 9.03437C67.3469 9.00006 67.4157 8.95933 67.4804 8.91268C67.5456 8.86375 67.6069 8.80985 67.6637 8.75148L67.4071 8.50178C67.3226 8.58203 67.2283 8.65158 67.1265 8.70881C67.0149 8.76245 66.8919 8.78899 66.7679 8.78625C66.667 8.78676 66.5672 8.76667 66.4745 8.72725C66.3818 8.68782 66.2983 8.6299 66.2291 8.55709C66.1602 8.48551 66.106 8.40121 66.0697 8.30897C66.0328 8.21149 66.0144 8.10807 66.0155 8.00395C66.0143 7.90033 66.0327 7.79741 66.0697 7.70051C66.1049 7.60945 66.1579 7.52622 66.2257 7.45567C66.2936 7.38513 66.375 7.32868 66.465 7.28961C66.5594 7.24816 66.6615 7.22715 66.7647 7.22797C66.8855 7.22576 67.005 7.25175 67.1138 7.30383C67.2185 7.35588 67.3155 7.42181 67.4023 7.4998L67.6589 7.21533C67.6044 7.16608 67.5469 7.12016 67.4868 7.07783C67.4245 7.03584 67.3583 6.99985 67.2891 6.97037C67.213 6.93916 67.134 6.91534 67.0532 6.89925C66.9596 6.88277 66.8646 6.87484 66.7695 6.87554C66.6058 6.87333 66.4432 6.90341 66.2913 6.96405C66.1504 7.01955 66.022 7.10228 65.9135 7.20743C65.8094 7.311 65.7271 7.43401 65.6712 7.56934C65.6134 7.70921 65.5841 7.85909 65.5852 8.01027C65.5837 8.16267 65.6136 8.31376 65.6728 8.45437C65.7286 8.58836 65.811 8.70984 65.9151 8.81154C66.0199 8.91439 66.1439 8.99599 66.2801 9.05176C66.4263 9.11101 66.5829 9.14057 66.7408 9.13868C66.8387 9.14004 66.9365 9.13104 67.0325 9.11181C67.1161 9.09582 67.1975 9.06982 67.2748 9.03437Z" fill="#181818"/>
<path fill-rule="evenodd" clip-rule="evenodd" d="M70.8564 8.44172C70.7996 8.57732 70.7162 8.70034 70.6109 8.80364C70.5017 8.90818 70.3735 8.9913 70.2332 9.0486C70.0814 9.1099 69.9188 9.14052 69.755 9.13868C69.5913 9.1402 69.4289 9.11014 69.2768 9.05018C69.1379 8.99416 69.0113 8.91205 68.9038 8.80838C68.7987 8.70587 68.7158 8.58329 68.6599 8.44805C68.543 8.16771 68.543 7.85284 68.6599 7.5725C68.7167 7.43653 68.8008 7.31341 68.907 7.21059C69.0153 7.10572 69.143 7.02255 69.2832 6.96563C69.435 6.90458 69.5975 6.87396 69.7613 6.87555C69.925 6.87399 70.0874 6.90405 70.2395 6.96405C70.3787 7.02045 70.5058 7.1025 70.6141 7.20585C70.8263 7.41806 70.945 7.70509 70.9441 8.00395C70.9451 8.15427 70.9153 8.30322 70.8564 8.44172ZM70.4691 7.70842C70.4326 7.61626 70.3785 7.532 70.3097 7.46029C70.2376 7.38626 70.1512 7.3275 70.0555 7.28757C69.9599 7.24764 69.8571 7.22736 69.7534 7.22798C69.6439 7.22556 69.5351 7.24659 69.4346 7.28961C69.3435 7.32845 69.2612 7.38486 69.1923 7.45555C69.1236 7.52676 69.0695 7.61049 69.0329 7.7021C68.9586 7.89659 68.9586 8.11132 69.0329 8.30581C69.0693 8.39796 69.1235 8.48223 69.1923 8.55393C69.2618 8.62614 69.3453 8.68367 69.4378 8.72304C69.5383 8.76618 69.647 8.78773 69.7566 8.78625C69.8628 8.78736 69.9682 8.76637 70.0658 8.72462C70.1562 8.68812 70.2385 8.63443 70.3081 8.56658C70.3768 8.49537 70.4309 8.41164 70.4675 8.32003C70.5439 8.12594 70.5439 7.91042 70.4675 7.71632L70.4691 7.70842Z" fill="#181818"/>
<path d="M73.1867 8.56341H73.1995L73.92 7.53141V9.10075H74.3169V6.91189H73.8913L73.1995 7.94705L72.5077 6.91189H72.0789V9.10075H72.4743V7.53773L73.1867 8.56341Z" fill="#181818"/>
<path fill-rule="evenodd" clip-rule="evenodd" d="M77.237 7.97234C77.1914 8.06644 77.1242 8.14869 77.0409 8.21256C76.9541 8.2767 76.8564 8.32487 76.7524 8.3548C76.6368 8.387 76.5171 8.40296 76.397 8.40221H75.9443V9.10549H75.5474V6.91189H76.4448C76.569 6.90945 76.6929 6.92707 76.8114 6.96404C76.9114 6.99482 77.0042 7.04536 77.084 7.1126C77.1577 7.17608 77.2165 7.25485 77.2561 7.34334C77.2974 7.43919 77.3181 7.54255 77.3167 7.64678C77.3166 7.76004 77.2893 7.87166 77.237 7.97234ZM76.7684 7.35915C76.6625 7.28945 76.5365 7.25614 76.4097 7.26432H75.9443V8.05452H76.4097C76.5391 8.0619 76.6668 8.02323 76.77 7.94548C76.8132 7.91114 76.8477 7.86723 76.8706 7.81727C76.8936 7.76731 76.9044 7.71271 76.9023 7.65784C76.9068 7.60094 76.8969 7.54382 76.8735 7.49166C76.8501 7.4395 76.814 7.39395 76.7684 7.35915Z" fill="#181818"/>
<path fill-rule="evenodd" clip-rule="evenodd" d="M79.8957 9.10075H80.3181L79.3171 6.89767H78.9473L77.9463 9.10075H78.3559L78.5903 8.5729H79.6662L79.8957 9.10075ZM78.7369 8.23785L79.1258 7.36231L79.5211 8.23785H78.7369Z" fill="#181818"/>
<path d="M82.9417 6.91189H83.3466V9.10075H83.0119L81.7527 7.54405V9.10075H81.3558V6.91189H81.7256L82.9417 8.42592V6.91189Z" fill="#181818"/>
<path d="M85.2418 9.10075H85.6451L85.6467 8.22837L86.5489 6.91189H86.0914L85.4538 7.88226L84.8162 6.91189H84.3381L85.2418 8.23785V9.10075Z" fill="#181818"/>
<path d="M113.512 26C104.718 20.8937 85.8539 17.3631 63.9992 17.3631C42.1445 17.3631 23.2816 20.8937 14.4878 26C24.6206 22.3651 43.002 19.4176 63.9992 19.4176C84.9964 19.4176 103.379 22.373 113.512 26Z" fill="#181818"/>
<path d="M110.989 11.3734V12.0055H111.145V11.3734H111.376V11.2406H110.751V11.3734H110.989Z" fill="#181818"/>
<path d="M111.467 11.2343V12.0055H111.623V11.3955L111.783 12.0055H111.923L112.095 11.3892V12.0055H112.243V11.2343H112L111.859 11.7606L111.719 11.2343H111.467Z" fill="#181818"/>
</svg>
