<svg width="128" height="32" viewBox="0 0 128 32" fill="none" xmlns="http://www.w3.org/2000/svg">
<path d="M25.1692 7.14039L26.0332 6.43914C26.1138 6.59833 26.1768 6.76585 26.2211 6.93872C26.3059 7.95164 26.3861 8.96456 26.4502 9.97976C26.4823 10.5183 26.3173 10.7085 25.8063 10.7039C24.9304 10.7039 24.0545 10.6749 23.1776 10.6458C22.926 10.6375 22.6733 10.6291 22.4215 10.6214C22.2763 10.5961 22.1341 10.5554 21.9975 10.5L22.685 9.63143C20.3934 8.00664 16.1652 7.94706 13.4313 10.8941C12.1846 12.2323 11.4723 13.9813 11.4294 15.8097C11.3865 17.638 12.0159 19.4186 13.1983 20.8138C14.3807 22.209 16.034 23.1218 17.8447 23.3792C19.6553 23.6366 21.4975 23.2207 23.0219 22.2104C25.9186 20.2968 27.7886 15.7937 24.8346 11.3777C24.9382 11.3777 25.0367 11.376 25.1316 11.3745C25.3117 11.3715 25.4793 11.3687 25.6459 11.3777C26.5625 11.4373 27.2317 10.8735 27.1034 9.8881C27.0866 9.59195 27.0866 9.29508 27.1034 8.99893C28.4153 10.5225 29.2617 12.3911 29.5417 14.3821C29.7626 15.77 29.7057 17.188 29.3745 18.5538C29.0433 19.9196 28.4442 21.2061 27.6121 22.3387C25.9812 24.5842 23.5482 26.1154 20.8182 26.6145C18.0881 27.1135 15.2708 26.542 12.9509 25.0187C10.6311 23.4953 8.98703 21.1371 8.36 18.4336C7.73297 15.7301 8.17114 12.889 9.58357 10.5C12.5834 5.40331 19.5042 3.31789 25.1692 7.14039Z" fill="#181818"/>
<path fill-rule="evenodd" clip-rule="evenodd" d="M110.8 17.4644C110.616 17.9405 110.343 18.377 109.995 18.75C109.628 19.1365 109.185 19.4426 108.693 19.6493C108.202 19.856 107.673 19.9587 107.14 19.9509C106.589 19.9584 106.042 19.8499 105.536 19.6323C105.067 19.4245 104.644 19.1245 104.294 18.75C103.947 18.3832 103.675 17.9518 103.494 17.4804C103.115 16.4974 103.115 15.4087 103.494 14.4256C103.68 13.9544 103.953 13.5227 104.3 13.1538C104.653 12.7802 105.077 12.4816 105.547 12.2761C106.053 12.0545 106.599 11.9436 107.151 11.9506C107.703 11.9435 108.249 12.0528 108.755 12.2715C109.222 12.4747 109.645 12.7684 109.998 13.1354C110.344 13.5028 110.616 13.934 110.797 14.405C110.984 14.892 111.079 15.4096 111.077 15.9313C111.083 16.4553 110.989 16.9756 110.8 17.4644ZM109.956 14.7144C109.815 14.3391 109.6 13.9956 109.325 13.7041C109.049 13.4126 108.719 13.1787 108.352 13.0163C107.97 12.8443 107.555 12.7575 107.135 12.7619C106.717 12.7605 106.302 12.8488 105.921 13.0209C105.559 13.1785 105.234 13.4086 104.965 13.6969C104.696 13.9917 104.486 14.3346 104.344 14.7075C104.19 15.1027 104.112 15.5233 104.115 15.9473C104.113 16.3735 104.19 16.7964 104.344 17.194C104.485 17.5712 104.7 17.9164 104.977 18.2092C105.251 18.4985 105.578 18.732 105.941 18.8967C106.324 19.0687 106.74 19.1555 107.16 19.1511C107.579 19.15 107.993 19.0602 108.375 18.8875C108.737 18.7261 109.061 18.4921 109.328 18.2C109.598 17.9053 109.809 17.5625 109.952 17.1894C110.105 16.7943 110.183 16.3736 110.181 15.9496C110.183 15.5268 110.107 15.1071 109.956 14.7121V14.7144Z" fill="#181818"/>
<path d="M100.125 19.8408C100.672 19.719 101.186 19.4798 101.631 19.1396C101.857 18.9732 102.071 18.7901 102.27 18.5918L101.695 18.0304C101.363 18.3573 100.984 18.6337 100.572 18.8508C100.144 19.0569 99.6721 19.1575 99.1969 19.1441C98.788 19.1479 98.3831 19.0635 98.0098 18.8966C97.6524 18.7316 97.3308 18.498 97.0634 18.2091C96.7904 17.9141 96.5765 17.5695 96.4332 17.1939C96.28 16.7922 96.2023 16.3657 96.204 15.9358C96.2019 15.5081 96.2796 15.0838 96.4332 14.6846C96.5771 14.3114 96.791 13.9692 97.0634 13.6762C97.5025 13.2119 98.0793 12.9011 98.7086 12.7896C99.3379 12.6782 99.9863 12.7721 100.558 13.0575C100.945 13.2635 101.303 13.5193 101.624 13.8183L102.217 13.1789C102.03 12.9991 101.832 12.8314 101.624 12.6771C101.414 12.5248 101.188 12.3957 100.95 12.2921C100.697 12.1815 100.432 12.0978 100.162 12.0423C99.8476 11.9817 99.5282 11.9525 99.2084 11.9552C98.6662 11.9513 98.1292 12.0605 97.6317 12.276C97.1666 12.4781 96.7467 12.771 96.3965 13.1377C96.0487 13.5066 95.7742 13.9382 95.5875 14.4096C95.1965 15.4132 95.1965 16.5271 95.5875 17.5308C95.7721 18.0005 96.0469 18.4295 96.3965 18.7935C96.7562 19.1622 97.1871 19.4538 97.6629 19.6508C98.1388 19.8478 98.6498 19.946 99.1648 19.9394C99.4876 19.9429 99.8097 19.9099 100.125 19.8408Z" fill="#181818"/>
<path fill-rule="evenodd" clip-rule="evenodd" d="M84.6425 17.4643C84.4575 17.9401 84.1838 18.3764 83.8359 18.75C83.4686 19.1364 83.0253 19.4426 82.5338 19.6493C82.0424 19.8559 81.5135 19.9586 80.9804 19.9508C80.4293 19.9587 79.8826 19.8502 79.3763 19.6323C78.9105 19.4308 78.4898 19.138 78.1391 18.7711C77.7884 18.4043 77.5147 17.9708 77.3344 17.4964C77.1473 17.0094 77.0525 16.4919 77.0548 15.9702C77.0517 15.447 77.1489 14.9282 77.3413 14.4416C77.5254 13.97 77.7985 13.5382 78.1457 13.1698C78.4983 12.7967 78.9222 12.4982 79.3923 12.2921C79.9005 12.0798 80.4457 11.9705 80.9965 11.9705C81.5472 11.9705 82.0925 12.0798 82.6006 12.2921C83.066 12.4932 83.4863 12.7857 83.8366 13.1521C84.187 13.5186 84.4602 13.9516 84.6402 14.4256C85.0192 15.4086 85.0192 16.4974 84.6402 17.4804L84.6425 17.4643ZM83.7969 14.7143C83.6546 14.341 83.4405 13.9992 83.1667 13.7083C82.8925 13.419 82.5649 13.1855 82.2019 13.0208C81.817 12.8544 81.4021 12.7686 80.9827 12.7686C80.5634 12.7686 80.1485 12.8544 79.7636 13.0208C79.4044 13.1748 79.0806 13.401 78.8125 13.6854C78.5431 13.9801 78.3316 14.323 78.1892 14.696C78.0354 15.0912 77.9577 15.5118 77.96 15.9358C77.9579 16.362 78.0356 16.7849 78.1892 17.1825C78.3306 17.5578 78.5452 17.9012 78.8206 18.1928C79.096 18.4843 79.4267 18.7181 79.7934 18.8806C80.1765 19.0528 80.5925 19.1396 81.0125 19.135C81.4311 19.1394 81.8458 19.055 82.2294 18.8875C82.5913 18.7255 82.9164 18.4916 83.185 18.2C83.4538 17.9052 83.6645 17.5623 83.8061 17.1894C83.9599 16.7942 84.0376 16.3736 84.0352 15.9496C84.0333 15.5258 83.9525 15.1062 83.7969 14.7121V14.7143Z" fill="#181818"/>
<path d="M75.5102 19.8065H76.6034L73.1498 15.4615L76.459 12.079H75.3338L70.9017 16.6875V12.0881H70.0286V19.7973H70.9017V17.7348L72.5448 16.0688L75.5102 19.8065Z" fill="#181818"/>
<path fill-rule="evenodd" clip-rule="evenodd" d="M47.9965 17.4644C47.8036 17.9279 47.5164 18.3462 47.1532 18.6927C46.7763 19.0465 46.3342 19.3236 45.8515 19.5086C45.3215 19.7122 44.7577 19.8133 44.19 19.8065H41.5111V12.0881H44.19C44.7571 12.0815 45.3204 12.1802 45.8515 12.3792C46.3344 12.5617 46.7767 12.8373 47.1532 13.1904C47.5154 13.5361 47.8024 13.9527 47.9965 14.4142C48.3938 15.3921 48.3938 16.4865 47.9965 17.4644ZM47.1623 14.7556C47.0181 14.3906 46.8005 14.0592 46.523 13.7817C46.2355 13.4973 45.8921 13.2757 45.5146 13.1308C45.0917 12.9708 44.6421 12.893 44.19 12.9017H42.375V19.0021H44.1832C44.6351 19.0085 45.0843 18.9308 45.5077 18.7729C45.8787 18.6345 46.2167 18.4204 46.5004 18.1442C46.784 17.868 47.0071 17.5358 47.1555 17.1688C47.3103 16.7875 47.3881 16.3794 47.3846 15.9679C47.39 15.5532 47.3145 15.1415 47.1623 14.7556Z" fill="#181818"/>
<path fill-rule="evenodd" clip-rule="evenodd" d="M55.4513 19.8065L53.2123 16.8067H51.0054V19.8065H50.1346V12.0881H53.4552C53.8434 12.0837 54.2299 12.1394 54.6011 12.2531C54.9207 12.3512 55.2181 12.5108 55.4765 12.7229C55.7158 12.9204 55.9084 13.1685 56.0402 13.4494C56.174 13.746 56.2412 14.0682 56.2373 14.3935C56.2426 14.6895 56.1904 14.9837 56.0838 15.2598C55.985 15.5078 55.8369 15.7331 55.6484 15.9221C55.4527 16.1104 55.2274 16.2653 54.9815 16.3804C54.7156 16.5071 54.4333 16.5958 54.1427 16.644L56.5146 19.795L55.4513 19.8065ZM54.8532 13.2958C54.4249 13.0028 53.9113 12.8609 53.3934 12.8925H51.0054V16.0344H53.375C53.6441 16.0368 53.912 15.9997 54.1702 15.9244C54.3976 15.8587 54.6111 15.7523 54.8004 15.6104C54.9747 15.4756 55.1165 15.3033 55.2152 15.1063C55.3168 14.8956 55.3678 14.6641 55.3642 14.4302C55.3755 14.2141 55.335 13.9984 55.2461 13.8011C55.1572 13.6038 55.0225 13.4306 54.8532 13.2958Z" fill="#181818"/>
<path d="M59.0561 19.8065V12.0881H58.1875V19.8065H59.0561Z" fill="#181818"/>
<path d="M66.9967 12.0881H67.8469V19.8065H67.1594L62.1659 13.4792V19.8065H61.3179V12.0881H62.1338L66.9967 18.2756V12.0881Z" fill="#181818"/>
<path d="M86.9915 14.0727C87.2471 13.6938 87.5638 13.36 87.9288 13.085C88.2656 12.8573 88.666 12.7426 89.0723 12.7573C89.2754 12.7567 89.4771 12.7916 89.6682 12.8604C89.8517 12.9266 90.0206 13.0277 90.1655 13.1583C90.3053 13.2883 90.4189 13.4439 90.5 13.6167C90.5884 13.8084 90.633 14.0174 90.6307 14.2285C90.6311 14.418 90.6032 14.6064 90.5482 14.7877C90.4838 14.9846 90.3903 15.1707 90.2709 15.34C90.117 15.5543 89.9453 15.7551 89.7575 15.9404C89.5513 16.1558 89.3015 16.3942 89.0082 16.66L86.2077 19.1327V19.8019H91.6V19.0089H87.5163L89.5788 17.1756C89.9164 16.8823 90.2067 16.6119 90.4496 16.3644C90.6722 16.1437 90.8747 15.9037 91.0546 15.6471C91.2074 15.4367 91.3286 15.205 91.4144 14.9596C91.4931 14.7059 91.5317 14.4414 91.529 14.1758C91.5328 13.8748 91.4726 13.5764 91.3525 13.3004C91.2378 13.0389 91.0691 12.8046 90.8575 12.6129C90.637 12.4132 90.3803 12.2576 90.1013 12.1546C89.7924 12.0414 89.4654 11.9855 89.1365 11.9896C88.8276 11.9855 88.5194 12.0217 88.2198 12.0973C87.9625 12.1659 87.7169 12.2725 87.4911 12.4135C87.2687 12.5567 87.0667 12.7294 86.8907 12.9269C86.6964 13.1447 86.5158 13.3743 86.3498 13.6144L86.9915 14.0727Z" fill="#181818"/>
<path d="M93.1332 19.8065V18.6606H94.1484V19.8065H93.1332Z" fill="#181818"/>
<path d="M116.579 17.689H116.625L119.448 13.5548V19.8065H120.319V12.0881H119.437L116.625 16.3002L113.802 12.0881H112.919V19.8065H113.767V13.564L116.579 17.689Z" fill="#181818"/>
<path d="M33.2359 23.0538H31.375C31.4287 22.9322 31.4703 22.8326 31.5066 22.7458C31.5523 22.6363 31.5895 22.5472 31.6317 22.4602C31.7487 22.2322 31.8651 22.004 31.9815 21.7759C32.305 21.1418 32.6284 20.5078 32.9655 19.8775C33.3227 19.1882 33.3982 18.3871 33.1763 17.6431C33.1247 17.3988 33.0109 17.1718 32.8459 16.9844C32.6809 16.7969 32.4703 16.6552 32.2344 16.5729C31.9489 16.4603 31.6364 16.4351 31.3365 16.5004C31.0366 16.5656 30.7629 16.7185 30.55 16.9396C30.0207 17.4369 29.9588 18.0511 30.1215 18.695H31.1115C31.1161 18.6193 31.1216 18.549 31.1267 18.4823C31.1368 18.3511 31.1459 18.2337 31.1459 18.1152C31.1384 18.047 31.1455 17.9779 31.1667 17.9125C31.1879 17.8472 31.2227 17.7871 31.2689 17.7362C31.315 17.6853 31.3714 17.6448 31.4343 17.6173C31.4973 17.5898 31.5653 17.576 31.634 17.5767C31.9594 17.5538 32.113 17.7738 32.1657 18.074C32.2563 18.5887 32.1664 19.1189 31.9113 19.575C31.7068 19.9564 31.5059 20.3401 31.305 20.7237C30.9723 21.3589 30.6397 21.994 30.2911 22.6184C30.0438 23.0741 29.9822 23.6078 30.1192 24.1079H33.2359V23.0538Z" fill="#181818"/>
</svg>
